<svg version="1.1" id="arrow-right" xmlns="http://www.w3.org/2000/svg" xmlns:xlink="http://www.w3.org/1999/xlink" x="0px" y="0px"
	 viewBox="0 0 78 54.7" style="enable-background:new 0 0 78 54.7;" xml:space="preserve">
<style type="text/css">
	.st0{clip-path:url(#XMLID_73_);fill:#CECECE;}
</style>
<g id="XMLID_2_">
	<g id="XMLID_3_">
		<defs>
			<rect id="XMLID_4_" x="2.9" y="2.1" width="71.2" height="50.4"/>
		</defs>
		<clipPath id="XMLID_73_">
			<use xlink:href="#XMLID_4_"  style="overflow:visible;"/>
		</clipPath>
		<path id="XMLID_5_" class="st0" d="M50.8,3.1c-1-1-2.6-1-3.6,0c-1,1-1,2.6,0,3.6l18.2,18.2h-60c-1.4,0-2.5,1.1-2.5,2.5
			c0,1.4,1.1,2.5,2.5,2.5h60L47.2,48c-1,1-1,2.6,0,3.6c1,1,2.6,1,3.6,0l22.5-22.5c1-1,1-2.6,0-3.6L50.8,3.1z M50.8,3.1"/>
	</g>
</g>
</svg>
