<svg version="1.1" id="arrow-left" xmlns="http://www.w3.org/2000/svg" xmlns:xlink="http://www.w3.org/1999/xlink" x="0px" y="0px"
	 viewBox="0 0 78 54.7" style="enable-background:new 0 0 78 54.7;" xml:space="preserve">
<style type="text/css">
	.st0{clip-path:url(#XMLID_73_);fill:#CECECE;}
</style>
<g id="XMLID_2_">
	<g id="XMLID_3_">
		<defs>
			<rect id="XMLID_4_" x="2.9" y="2.1" width="71.2" height="50.4"/>
		</defs>
		<clipPath id="XMLID_73_">
			<use xlink:href="#XMLID_4_"  style="overflow:visible;"/>
		</clipPath>
		<path id="XMLID_5_" class="st0" d="M26.2,51.6c1,1,2.6,1,3.6,0c1-1,1-2.6,0-3.6L11.6,29.9h60c1.4,0,2.5-1.1,2.5-2.5
			c0-1.4-1.1-2.5-2.5-2.5h-60L29.8,6.6c1-1,1-2.6,0-3.6c-1-1-2.6-1-3.6,0L3.7,25.6c-1,1-1,2.6,0,3.6L26.2,51.6z M26.2,51.6"/>
	</g>
</g>
</svg>
