<svg version="1.1" xmlns="http://www.w3.org/2000/svg" xmlns:xlink="http://www.w3.org/1999/xlink" x="0px" y="0px"
	 viewBox="0 0 316 154" style="enable-background:new 0 0 316 154;" xml:space="preserve">
<g id="Layer_1">
	<g>
		<g>
			<path d="M12.1,100.3h7.8c5.1,0,6.9,0.5,9,2.5c1.9,1.8,2.9,4.1,2.9,6.9c0,4-2.3,7.7-5.5,9c-1.7,0.7-2.3,0.7-6.5,0.7h-1.9v11.8
				h-5.7V100.3z M19.7,114c4.5,0,6.5-1.3,6.5-4.4c0-2.9-1.8-4.1-6.3-4.1h-2.1v8.4H19.7z"/>
			<path d="M46.4,100.3h9.4c4.3,0,6.8,1,8.9,3.4c1.5,1.8,2.3,3.9,2.3,6.2c0,2.1-0.8,4.6-2,6.3c-1.4,1.9-3.1,2.9-6.1,3.7l8.4,11.4
				h-6.9l-8.3-11.8v11.8h-5.7V100.3z M55.8,115c3.4,0,5.5-1.8,5.5-4.7c0-2.9-2.1-4.7-5.5-4.7h-3.7v9.4H55.8z"/>
			<path d="M79.1,100.3h16.6v5.3H84.8v7.5h10.4v5.3H84.8v7.3h10.9v5.4H79.1V100.3z"/>
			<path d="M138.9,122.5c-2.4,5.5-8.1,9.2-14.3,9.2c-8.8,0-16.1-7.3-16.1-16.1c0-8.8,7.2-16,15.9-16c4.4,0,8.5,1.7,11.6,4.9
				c1.5,1.5,2,2.3,3,4.5h-6.5c-1.5-1.7-2.6-2.5-4.2-3.2c-1.2-0.5-2.9-0.8-4.1-0.8c-5.4,0-10,4.9-10,10.7c0,5.8,4.8,10.8,10.3,10.8
				c3,0,5.1-1.1,7.8-3.9H138.9z"/>
			<path d="M152.4,100.3h5.7v30.8h-5.7V100.3z"/>
			<path d="M177,122.3c0.1,2.5,1.8,4.2,4.3,4.2c2.4,0,4.2-1.6,4.2-3.9c0-2.2-1.1-3.4-4.2-4.5c-4.4-1.7-5.1-2-6.5-3.3
				c-1.6-1.6-2.6-4-2.6-6.3c0-4.8,4.1-8.8,9.1-8.8c5,0,8.9,3.7,9.1,8.8h-5.9c-0.2-2.1-1.5-3.4-3.4-3.4c-1.9,0-3.2,1.2-3.2,3.1
				c0,2,1,2.9,5.2,4.3c2.7,0.9,4,1.6,5.3,2.9c1.9,1.8,2.8,3.9,2.8,6.5c0,5.6-4.4,10-10,10c-5.5,0-9.8-4-10-9.4H177z"/>
			<path d="M204.3,100.3h5.7v30.8h-5.7V100.3z"/>
			<path d="M239.9,99.6c8.9,0,16.2,7.2,16.2,16.1c0,8.9-7.2,16-16.2,16c-8.9,0-16.1-7.1-16.1-15.9
				C223.8,106.9,231.1,99.6,239.9,99.6z M239.9,126.4c5.8,0,10.5-4.8,10.5-10.7c0-5.9-4.7-10.7-10.5-10.7c-5.7,0-10.4,4.8-10.4,10.7
				C229.5,121.7,234.2,126.4,239.9,126.4z"/>
			<path d="M268.1,100.3h6.5l12.9,22.5v-22.5h5.7v30.8h-6.4l-13-22.4v22.4h-5.7V100.3z"/>
			<polygon points="117.6,41.5 123.4,47.4 187.2,47.4 193,41.5 			"/>
			<polygon points="181.4,53.2 129.2,53.2 135,59.1 175.6,59.1 			"/>
			<polygon points="212.6,21.7 209.3,15.1 101.3,15.1 97.9,21.7 100.3,24.1 210.3,24.1 			"/>
			<polygon points="140.8,65 155.3,79.6 169.8,65 			"/>
			<polygon points="198.8,35.7 204.5,29.9 106.1,29.9 111.8,35.7 			"/>
		</g>
	</g>
</g>
<g id="Layer_2">
</g>
</svg>
