<svg version="1.1" id="logo_svg" xmlns="http://www.w3.org/2000/svg" xmlns:xlink="http://www.w3.org/1999/xlink" x="0px" y="0px"
	 viewBox="0 0 281 178.8" style="enable-background:new 0 0 281 178.8;" xml:space="preserve">
<g>
	<defs>
		<rect id="SVGID_1_" width="281" height="178.8"/>
	</defs>
	<clipPath id="SVGID_2_">
		<use xlink:href="#SVGID_1_"  style="overflow:visible;"/>
	</clipPath>
	<path class="colorLogo" d="M0,85.2h7.8c5.1,0,6.9,0.5,9,2.5c1.9,1.8,2.9,4.1,2.9,6.9c0,4-2.3,7.7-5.5,9c-1.7,0.7-2.3,0.7-6.5,0.7H5.7V116
		H0V85.2z M7.5,98.9c4.5,0,6.5-1.3,6.5-4.4c0-2.9-1.8-4.1-6.3-4.1H5.7v8.4H7.5z"/>
	<path class="colorLogo" d="M34.3,85.2h9.4c4.3,0,6.8,1,8.9,3.4c1.5,1.8,2.3,3.9,2.3,6.2c0,2.1-0.8,4.6-2,6.3c-1.4,1.9-3.1,2.9-6.1,3.7
		l8.4,11.4h-6.9L40,104.2V116h-5.7V85.2z M43.7,99.9c3.4,0,5.5-1.8,5.5-4.7c0-2.9-2.1-4.7-5.5-4.7H40v9.4H43.7z"/>
	<polygon class="colorLogo" points="67,85.2 83.6,85.2 83.6,90.5 72.7,90.5 72.7,98 83.1,98 83.1,103.3 72.7,103.3 72.7,110.6 83.6,110.6
		83.6,116 67,116 	"/>
	<path class="colorLogo" d="M126.8,107.4c-2.4,5.5-8.1,9.2-14.3,9.2c-8.8,0-16.1-7.3-16.1-16.1c0-8.8,7.2-16,15.9-16
		c4.4,0,8.5,1.7,11.6,4.9c1.5,1.5,2,2.3,3,4.5h-6.5c-1.5-1.7-2.6-2.5-4.2-3.2c-1.2-0.5-2.9-0.8-4.1-0.8c-5.4,0-10,4.9-10,10.7
		c0,5.8,4.8,10.8,10.3,10.8c3,0,5.1-1.1,7.8-3.9H126.8z"/>
	<rect x="140.3" y="85.2" class="colorLogo" width="5.7" height="30.8"/>
	<path class="colorLogo" d="M164.8,107.1c0.1,2.6,1.8,4.2,4.3,4.2c2.4,0,4.2-1.6,4.2-3.9c0-2.2-1.1-3.4-4.2-4.5c-4.4-1.7-5.1-2-6.5-3.3
		c-1.6-1.6-2.6-4-2.6-6.3c0-4.8,4.1-8.8,9.1-8.8c5,0,8.9,3.7,9.1,8.8h-5.9c-0.2-2.1-1.5-3.4-3.4-3.4c-1.9,0-3.2,1.2-3.2,3.1
		c0,2,1,2.9,5.2,4.3c2.7,0.9,4,1.6,5.3,2.9c1.9,1.8,2.8,3.9,2.8,6.5c0,5.6-4.4,10-10,10c-5.5,0-9.8-4-10-9.4H164.8z"/>
	<rect x="192.2" y="85.2" class="colorLogo" width="5.7" height="30.8"/>
	<path class="colorLogo" d="M227.8,84.5c8.9,0,16.2,7.2,16.2,16.1c0,8.9-7.2,16-16.2,16c-8.9,0-16.1-7.1-16.1-15.9
		C211.7,91.7,218.9,84.5,227.8,84.5 M227.8,111.3c5.8,0,10.5-4.8,10.5-10.7c0-5.9-4.7-10.7-10.5-10.7c-5.7,0-10.4,4.8-10.4,10.7
		C217.4,106.5,222.1,111.3,227.8,111.3"/>
	<polygon class="colorLogo" points="255.9,85.2 262.4,85.2 275.3,107.6 275.3,85.2 281,85.2 281,116 274.6,116 261.6,93.6 261.6,116
		255.9,116 	"/>
	<g class="slogan-logo">
		<polygon class="colorLogo" points="70.6,138.1 72,138.1 72,151.2 78,151.2 78,152.5 70.6,152.5 	"/>
		<path class="colorLogo" d="M93.7,152.5h-1.4v-1.9c-1.1,1.4-2.5,2.1-4.2,2.1c-3.2,0-5.7-2.5-5.7-5.6c0-3.1,2.5-5.6,5.7-5.6
			c1.8,0,3.2,0.8,4.2,2.1v-1.9h1.4V152.5z M88.1,151.5c2.3,0,4.2-2,4.2-4.4c0-2.4-1.9-4.4-4.2-4.4c-2.4,0-4.4,2-4.4,4.4
			C83.8,149.5,85.8,151.5,88.1,151.5"/>
		<path class="colorLogo" d="M99.7,138.1h1.5v5.6c0.9-1.4,2.4-2.1,4.1-2.1c3.2,0,5.8,2.5,5.8,5.6c0,3.1-2.6,5.6-5.7,5.6
			c-1.8,0-3.4-0.8-4.3-2.1v1.8h-1.4V138.1z M105.3,151.5c2.4,0,4.3-2,4.3-4.4c0-2.4-1.9-4.3-4.3-4.3c-2.4,0-4.3,1.9-4.3,4.4
			C101,149.6,102.9,151.5,105.3,151.5"/>
		<path class="colorLogo" d="M121.5,141.6c3,0,5.6,2.6,5.6,5.6c0,3.1-2.6,5.6-5.6,5.6c-3.1,0-5.6-2.5-5.6-5.6
			C116,144.1,118.5,141.6,121.5,141.6 M121.5,151.5c2.4,0,4.2-2,4.2-4.4c0-2.4-1.9-4.3-4.2-4.3c-2.3,0-4.2,2-4.2,4.4
			C117.3,149.6,119.2,151.5,121.5,151.5"/>
		<path class="colorLogo" d="M132.4,141.8h1.4v1.5c0.6-1.2,1.5-1.7,3.1-1.8v1.4c-0.9,0.1-1.4,0.3-1.9,0.8c-0.8,0.7-1.1,1.3-1.1,2.5v6.2
			h-1.5V141.8z"/>
		<path class="colorLogo" d="M152.7,152.5h-1.4v-1.9c-1.1,1.4-2.5,2.1-4.2,2.1c-3.2,0-5.7-2.5-5.7-5.6c0-3.1,2.5-5.6,5.7-5.6
			c1.8,0,3.2,0.8,4.2,2.1v-1.9h1.4V152.5z M147.1,151.5c2.3,0,4.2-2,4.2-4.4c0-2.4-1.9-4.4-4.2-4.4c-2.4,0-4.4,2-4.4,4.4
			C142.7,149.5,144.7,151.5,147.1,151.5"/>
		<polygon class="colorLogo" points="159.9,143.1 157.7,143.1 157.7,141.9 159.9,141.9 159.9,138.1 161.3,138.1 161.3,141.9 163.8,141.9
			163.8,143.1 161.3,143.1 161.3,152.5 159.9,152.5 	"/>
		<path class="colorLogo" d="M173.7,141.6c3,0,5.6,2.6,5.6,5.6c0,3.1-2.6,5.6-5.6,5.6c-3.1,0-5.6-2.5-5.6-5.6
			C168.1,144.1,170.6,141.6,173.7,141.6 M173.7,151.5c2.4,0,4.2-2,4.2-4.4c0-2.4-1.9-4.3-4.2-4.3c-2.3,0-4.2,2-4.2,4.4
			C169.5,149.6,171.4,151.5,173.7,151.5 M175.4,136.7l0.7,1.1l-3.8,2.2l-0.7-1.1L175.4,136.7z"/>
		<path class="colorLogo" d="M184.6,141.8h1.4v1.5c0.6-1.2,1.4-1.7,3.1-1.8v1.4c-0.9,0.1-1.4,0.3-1.9,0.8c-0.8,0.7-1.1,1.3-1.1,2.5v6.2
			h-1.5V141.8z"/>
		<path class="colorLogo" d="M193.8,138.1h1.4v2.4h-1.4V138.1z M193.8,141.8h1.4v10.7h-1.4V141.8z"/>
		<path class="colorLogo" d="M206,141.6c3,0,5.6,2.6,5.6,5.6c0,3.1-2.6,5.6-5.6,5.6c-3.1,0-5.6-2.5-5.6-5.6
			C200.4,144.1,202.9,141.6,206,141.6 M206,151.5c2.4,0,4.2-2,4.2-4.4c0-2.4-1.9-4.3-4.2-4.3c-2.3,0-4.2,2-4.2,4.4
			C201.8,149.6,203.7,151.5,206,151.5"/>
		<path class="colorLogo" d="M64.5,178.5h-1.3v-1.9c-0.7,0.9-1.2,1.3-2,1.7c-0.7,0.3-1.5,0.5-2.3,0.5c-3.1,0-5.7-2.5-5.7-5.6
			c0-3.1,2.5-5.6,5.7-5.6c1.7,0,3.1,0.7,4.2,2v-5.5h1.4V178.5z M58.9,177.5c2.3,0,4.3-2,4.3-4.4c0-2.4-1.9-4.4-4.3-4.4
			c-2.3,0-4.3,2-4.3,4.3C54.6,175.5,56.5,177.5,58.9,177.5"/>
		<path class="colorLogo" d="M71.4,173.7c0.1,2.1,2,3.9,4.1,3.9c1.6,0,3.2-1.1,3.8-2.5h1.5c-0.8,2.2-2.9,3.7-5.2,3.7
			c-3.1,0-5.6-2.5-5.6-5.6c0-3.1,2.5-5.6,5.5-5.6c2.3,0,4.4,1.5,5.2,3.6c0.3,0.8,0.3,1.2,0.4,2.5H71.4z M75.5,168.8
			c-2,0-3.7,1.5-4.1,3.6h8.2C79.1,170.2,77.5,168.8,75.5,168.8"/>
		<path class="colorLogo" d="M95.3,173.7c0.1,2.1,2,3.9,4.1,3.9c1.6,0,3.2-1.1,3.8-2.5h1.5c-0.8,2.2-2.9,3.7-5.2,3.7
			c-3.1,0-5.6-2.5-5.6-5.6c0-3.1,2.5-5.6,5.5-5.6c2.3,0,4.4,1.5,5.2,3.6c0.3,0.8,0.3,1.2,0.4,2.5H95.3z M99.4,168.8
			c-2,0-3.7,1.5-4.1,3.6h8.2C103,170.2,101.4,168.8,99.4,168.8"/>
		<polygon class="colorLogo" points="113.1,173.1 109.4,167.8 111,167.8 113.8,171.9 116.6,167.8 118.3,167.8 114.7,173.1 118.3,178.5
			116.7,178.5 113.8,174.2 111,178.5 109.4,178.5 	"/>
		<path class="colorLogo" d="M133.8,175.4c-0.7,1.3-1.2,1.9-2.2,2.5c-1,0.6-1.9,0.8-3,0.8c-3.3,0-5.9-2.4-5.9-5.6c0-3.1,2.6-5.6,5.7-5.6
			c2.4,0,4.5,1.3,5.3,3.5h-1.6c-0.8-1.4-2.2-2.3-3.7-2.3c-2.4,0-4.4,1.9-4.4,4.4c0,2.5,1.9,4.4,4.3,4.4c1.1,0,2.1-0.4,2.9-1.1
			c0.3-0.3,0.5-0.5,0.9-1H133.8z"/>
		<path class="colorLogo" d="M140.3,173.7c0.1,2.1,2,3.9,4.1,3.9c1.6,0,3.2-1.1,3.8-2.5h1.5c-0.8,2.2-2.9,3.7-5.2,3.7
			c-3.1,0-5.6-2.5-5.6-5.6c0-3.1,2.5-5.6,5.5-5.6c2.3,0,4.4,1.5,5.2,3.6c0.3,0.8,0.3,1.2,0.4,2.5H140.3z M144.4,168.8
			c-2,0-3.7,1.5-4.1,3.6h8.2C148,170.2,146.4,168.8,144.4,168.8"/>
		<rect x="155.3" y="164.1" class="colorLogo" width="1.4" height="14.4"/>
		<path class="colorLogo" d="M163.4,173.7c0.1,2.1,2,3.9,4.1,3.9c1.6,0,3.2-1.1,3.8-2.5h1.5c-0.8,2.2-2.9,3.7-5.2,3.7
			c-3.1,0-5.6-2.5-5.6-5.6c0-3.1,2.5-5.6,5.5-5.6c2.3,0,4.4,1.5,5.2,3.6c0.3,0.8,0.3,1.2,0.4,2.5H163.4z M167.5,168.8
			c-2,0-3.7,1.5-4.1,3.6h8.2C171.1,170.2,169.5,168.8,167.5,168.8 M166.9,163.7h1.3l2.8,2.4h-1.7l-1.7-1.5l-1.7,1.5H164L166.9,163.7z
			"/>
		<path class="colorLogo" d="M178.5,167.8h1.4v1.4c1.1-1.2,2-1.6,3.3-1.6c2.9,0,4.7,2,4.7,5.1v5.9h-1.4v-5.9c0-2.3-1.3-3.8-3.3-3.8
			c-1.2,0-2.4,0.7-2.9,1.8c-0.2,0.5-0.3,1.1-0.3,2.1v5.9h-1.4V167.8z"/>
		<path class="colorLogo" d="M204.4,175.4c-0.7,1.3-1.2,1.9-2.2,2.5c-1,0.6-1.9,0.8-3,0.8c-3.3,0-5.8-2.4-5.8-5.6c0-3.1,2.6-5.6,5.7-5.6
			c2.4,0,4.5,1.3,5.3,3.5h-1.6c-0.8-1.4-2.2-2.3-3.7-2.3c-2.4,0-4.4,1.9-4.4,4.4c0,2.5,1.9,4.4,4.3,4.4c1.1,0,2.1-0.4,2.9-1.1
			c0.3-0.3,0.5-0.5,0.9-1H204.4z"/>
		<path class="colorLogo" d="M209.7,164.1h1.4v2.4h-1.4V164.1z M209.7,167.8h1.4v10.7h-1.4V167.8z"/>
		<path class="colorLogo" d="M227.8,178.5h-1.4v-1.9c-1.1,1.4-2.5,2.1-4.2,2.1c-3.2,0-5.7-2.5-5.7-5.6c0-3.1,2.5-5.6,5.7-5.6
			c1.8,0,3.2,0.8,4.2,2.1v-1.9h1.4V178.5z M222.2,177.5c2.3,0,4.2-2,4.2-4.4c0-2.4-1.9-4.4-4.2-4.4c-2.4,0-4.4,2-4.4,4.4
			C217.8,175.5,219.8,177.5,222.2,177.5"/>
	</g>

	<polygon class="colorLogo" points="105.4,26.4 111.2,32.3 175.1,32.3 180.9,26.4 	"/>
	<polygon class="colorLogo" points="169.3,38.1 117,38.1 122.8,44 163.5,44 	"/>
	<polygon class="colorLogo" points="200.5,6.6 197.2,0 89.1,0 85.8,6.6 88.2,8.9 198.1,8.9 	"/>
	<polygon class="colorLogo" points="128.6,49.9 143.2,64.5 157.7,49.9 	"/>
	<polygon class="colorLogo" points="186.7,20.5 192.3,14.8 94,14.8 99.6,20.5 	"/>
</g>
</svg>
