<svg version="1.1" id="Layer_1" xmlns="http://www.w3.org/2000/svg" xmlns:xlink="http://www.w3.org/1999/xlink" x="0px" y="0px"
	 viewBox="0 0 380.6 556.1" style="enable-background:new 0 0 380.6 556.1;" xml:space="preserve">
<style type="text/css">
	.st0{fill:none;stroke:#c4c4c4;stroke-width:2;stroke-miterlimit:10;}
	.st1{fill:#c4c4c4;}
	.st2{fill:none;stroke:#c4c4c4;stroke-width:2;stroke-miterlimit:10;}
	.st3{fill:#c4c4c4;}
	.st4{fill:none;stroke:#c4c4c4;stroke-width:2;stroke-miterlimit:10;}
	.st5{fill:#c4c4c4;}
	.st6{fill:none;stroke:#c4c4c4;stroke-width:2;stroke-miterlimit:10;}
	.st7{fill:#c4c4c4;}
	.st8{fill:#000;}
	.st9{font-family:'Arial-BoldMT';}
	.st10{font-size:12.4503px;}
</style>
<g id="XMLID_234_">
	<g id="XMLID_272_">
		<g id="XMLID_488_">
			<path id="XMLID_158_" class="st0" d="M293.9,309.4c0.1-2.9-0.9-5.7,0-8.8c1.2-4.4,4.6-7.1,8.3-8.5c5.8-2.2,13.2-3.4,18.5,0.7
				c5.7,4.4,5.7,14.9,4.9,21.8c-0.6,5.2-2.9,11.5-7.6,13.5c-3.9,1.7-7.8,1-11.8,0.5c-1.7-0.2-8.5-0.5-11-3.2
				c-3.3-3.6-1.8-10.6-1.2-15.1C293.9,310,293.9,309.7,293.9,309.4z"/>
			<path id="XMLID_157_" class="st0" d="M305.5,297.4c0,0,1,2.2,4.7,0.9"/>
			<path id="XMLID_156_" class="st0" d="M303.5,322.4c0,0,1.2-1.8,5.1-0.8"/>
			<path id="XMLID_155_" class="st0" d="M307.9,298.7c0,0-1.7,5.4-1.4,10.7c0.3,5.3-0.6,11.9-0.6,11.9"/>
			<path id="XMLID_154_" class="st0" d="M299.7,309.2c0,0,4.4-1.3,6.9,0.3c2.5,1.6,10.3,0.1,10.3,0.1"/>
			<path id="XMLID_153_" class="st0" d="M321.4,302.2c0,0-1.9,6.7-0.5,13.3"/>
			<path id="XMLID_152_" class="st0" d="M319.2,318.7c0,0-4.8,0.5-4.9,5.5"/>
			<path id="XMLID_151_" class="st0" d="M296.3,324.1c0,0,1.8-0.6,2.3-7.6"/>
		</g>
		<g id="XMLID_474_">
			<path id="XMLID_477_" class="st1" d="M340.6,295.1h2.4v15.1h-2.6V298l-3.6,2.3l-1.2-1.9L340.6,295.1z"/>
			<path id="XMLID_475_" class="st1" d="M347.7,295.1h9.7v3l-5.7,12.3l-2.4-0.7l5.5-11.7v-0.7h-7.1V295.1z"/>
		</g>
	</g>
	<g id="XMLID_255_">
		<g id="XMLID_537_">
			<path id="XMLID_199_" class="st0" d="M78.4,309.4c-0.1-2.9,0.9-5.7,0-8.8c-1.2-4.4-4.6-7.1-8.3-8.5c-5.8-2.2-13.2-3.4-18.5,0.7
				c-5.7,4.4-5.7,14.9-4.9,21.8c0.6,5.2,2.9,11.5,7.6,13.5c3.9,1.7,7.8,1,11.8,0.5c1.7-0.2,8.5-0.5,11-3.2
				c3.3-3.6,1.8-10.6,1.2-15.1C78.5,310,78.4,309.7,78.4,309.4z"/>
			<path id="XMLID_198_" class="st0" d="M66.8,297.4c0,0-1,2.2-4.7,0.9"/>
			<path id="XMLID_197_" class="st0" d="M68.9,322.4c0,0-1.2-1.8-5.1-0.8"/>
			<path id="XMLID_196_" class="st0" d="M64.5,298.7c0,0,1.7,5.4,1.4,10.7c-0.3,5.3,0.6,11.9,0.6,11.9"/>
			<path id="XMLID_195_" class="st0" d="M72.7,309.2c0,0-4.4-1.3-6.9,0.3c-2.5,1.6-10.3,0.1-10.3,0.1"/>
			<path id="XMLID_194_" class="st0" d="M50.9,302.2c0,0,1.9,6.7,0.5,13.3"/>
			<path id="XMLID_193_" class="st0" d="M53.2,318.7c0,0,4.8,0.5,4.9,5.5"/>
			<path id="XMLID_192_" class="st0" d="M76,324.1c0,0-1.8-0.6-2.3-7.6"/>
		</g>
		<g id="XMLID_469_">
			<path id="XMLID_472_" class="st1" d="M15,295.6c0,0,2.2-0.7,4.5-0.7c3.9,0,5.2,1.3,5.2,4c0,2-1.2,2.9-2,3.4
				c1.4,0.6,2.3,1.2,2.3,3.4c0,3.1-1.5,4.7-5.1,4.7c-2.4,0-5-0.7-5-0.7l0.2-2c0,0,2.6,0.5,4.5,0.5c1.9,0,2.8-0.8,2.8-2.4
				c0-1.5-1.1-2.2-2.6-2.3h-3.1v-2.1h3.1c1.1,0,2.3-1,2.3-2.4c0-1.4-0.8-2-2.7-2c-1.9,0-4.1,0.4-4.1,0.4L15,295.6z"/>
			<path id="XMLID_470_" class="st1" d="M27.5,310.2V308l3.8-3.8c2-2,3.1-3.2,3.1-4.8c0-1.7-0.9-2.3-2.9-2.3c-1.6,0-3.8,0.4-3.8,0.4
				l-0.2-2c0,0,2.3-0.7,4.6-0.7c3.4,0,5,1.4,5,4.2c0,2.3-1,3.6-3.4,5.8l-3.3,3.1h7v2.2H27.5z"/>
		</g>
	</g>
	<g id="XMLID_271_">
		<g id="XMLID_497_">
			<path id="XMLID_165_" class="st0" d="M293.9,350.2c0-0.3,0-0.6-0.1-0.9c-0.5-5.2-0.8-11.1,3.9-14.5c6.5-4.7,21.5-6,26.3,3.4
				c4.9,9.3,4.8,22.4-1.8,27.3c-6.6,4.9-21.8,3.8-24.6,1.6C292.3,362.8,294.1,356.1,293.9,350.2z"/>
			<path id="XMLID_164_" class="st0" d="M299,350.4c0,0,6.4,1.3,9.5,0.5c3.1-0.8,9.1-0.2,9.1-0.2"/>
			<path id="XMLID_163_" class="st0" d="M304.5,339.9c0,0,4,0.1,3.8,4c-0.1,3.8,0.3,7,0.3,7s0.1,4.3-0.4,6.1
				c-0.5,1.7,0.3,5.4,0.3,5.4"/>
			<path id="XMLID_162_" class="st0" d="M300.8,357.2c0,0,1.6-0.3,0.1,3.9"/>
			<path id="XMLID_161_" class="st0" d="M319.9,342.8c0,0-1.2,4.6-0.2,8.5c1,4-2.3,9.1-2.3,9.1"/>
			<path id="XMLID_160_" class="st0" d="M298.6,339.7c0,0,3.1-4.5,10.2-2.6"/>
			<path id="XMLID_159_" class="st0" d="M303.9,366.1c0,0,4.7-1.5,7.1-0.3"/>
		</g>
		<g id="XMLID_462_">
			<path id="XMLID_467_" class="st1" d="M338.1,336.5h2.4v15.1h-2.6v-12.2l-3.6,2.3l-1.2-1.9L338.1,336.5z"/>
			<path id="XMLID_463_" class="st1" d="M355.7,340.3c0,1.9-0.5,2.6-2.1,3.5c1.4,0.9,2.3,1.7,2.3,3.7c0,3.2-2.6,4.3-5.9,4.3
				c-3.2,0-5.8-0.9-5.8-4.1c0-2.2,0.9-3,2.2-4c-1.4-0.9-2-1.8-2-3.5c0-2.6,2.2-4,5.5-4C353.4,336.3,355.7,337.7,355.7,340.3z
				 M353.1,347.2c0-1.2-0.8-1.8-2-2.2h-2.2c-1.2,0.4-1.9,1.1-1.9,2.2c0,1.7,1.2,2.4,3,2.4C351.9,349.6,353.1,348.9,353.1,347.2z
				 M347.3,340.7c0,1,0.6,1.6,1.6,2.2h2.2c1.1-0.5,1.7-1.1,1.7-2.2c0-1.4-1-2.1-2.8-2.1C348.3,338.6,347.3,339.2,347.3,340.7z"/>
		</g>
	</g>
	<g id="XMLID_256_">
		<g id="XMLID_546_">
			<path id="XMLID_206_" class="st0" d="M81,350.2c0-0.3,0-0.6,0.1-0.9c0.5-5.2,0.8-11.1-3.9-14.5c-6.5-4.7-21.5-6-26.3,3.4
				c-4.9,9.3-4.8,22.4,1.8,27.3c6.6,4.9,21.8,3.8,24.6,1.6C82.5,362.8,80.7,356.1,81,350.2z"/>
			<path id="XMLID_205_" class="st0" d="M75.8,350.4c0,0-6.4,1.3-9.5,0.5c-3.1-0.8-9.1-0.2-9.1-0.2"/>
			<path id="XMLID_204_" class="st0" d="M70.3,339.9c0,0-4,0.1-3.8,4c0.1,3.8-0.3,7-0.3,7s-0.1,4.3,0.4,6.1c0.5,1.7-0.3,5.4-0.3,5.4
				"/>
			<path id="XMLID_203_" class="st0" d="M74.1,357.2c0,0-1.6-0.3-0.1,3.9"/>
			<path id="XMLID_202_" class="st0" d="M54.9,342.8c0,0,1.2,4.6,0.2,8.5c-1,4,2.3,9.1,2.3,9.1"/>
			<path id="XMLID_201_" class="st0" d="M76.2,339.7c0,0-3.1-4.5-10.2-2.6"/>
			<path id="XMLID_200_" class="st0" d="M70.9,366.1c0,0-4.7-1.5-7.1-0.3"/>
		</g>
		<g id="XMLID_457_">
			<path id="XMLID_460_" class="st1" d="M19.3,337c0,0,2.2-0.7,4.5-0.7c3.9,0,5.2,1.3,5.2,4c0,2-1.2,2.9-2,3.4
				c1.4,0.6,2.3,1.2,2.3,3.4c0,3.1-1.5,4.7-5.1,4.7c-2.4,0-5-0.7-5-0.7l0.2-2c0,0,2.6,0.5,4.5,0.5c1.9,0,2.8-0.8,2.8-2.4
				c0-1.5-1.1-2.2-2.6-2.3h-3.1v-2.1H24c1.1,0,2.3-1,2.3-2.4c0-1.4-0.8-2-2.7-2c-1.9,0-4.1,0.4-4.1,0.4L19.3,337z"/>
			<path id="XMLID_137_" class="st1" d="M36.9,336.5h2.4v15.1h-2.6v-12.2l-3.6,2.3l-1.2-1.9L36.9,336.5z"/>
		</g>
	</g>
	<g id="XMLID_270_">
		<g id="XMLID_505_">
			<path id="XMLID_174_" class="st0" d="M286.8,378.3c0,0,1.2-8.2,13.9-7.2c0,0,19.6-3.6,14.8,13.5c0,0,8.7,7.5-3.7,20.7
				c0,0-3.6,13.3-12.6,9.9c-8.9-3.3-8.9-6.6-8.9-6.6s-11.4-2.1-10.9-8.8c0.4-6.6,3.3-7.5,4.9-12.2
				C285.9,383,286.8,378.3,286.8,378.3z"/>
			<path id="XMLID_173_" class="st0" d="M297.6,377.8c0,0-3.5-0.1-6.2,3.2"/>
			<path id="XMLID_172_" class="st0" d="M283.1,396.9c0,0-1.1,4.3,3.2,6.8"/>
			<path id="XMLID_171_" class="st0" d="M306.2,407.6c0,0-3.6,4.3-10.4,1.2"/>
			<path id="XMLID_170_" class="st0" d="M311.8,380.9c0,0-1.5-2.7-6,1.3"/>
			<path id="XMLID_169_" class="st0" d="M301.6,380c0,0,1.6,7-0.6,9.8c-2.2,2.8-1.2,7.4-2.8,9.8c-1.6,2.4-5.3,5.9-5.3,5.9"/>
			<path id="XMLID_168_" class="st0" d="M310.3,385.3c0,0-4.5,2.7-7.9,2"/>
			<path id="XMLID_167_" class="st0" d="M288.1,390.3c0,0,4.7,0.4,8.8,3.7c4.1,3.3,10.8,4.6,10.8,4.6"/>
			<path id="XMLID_166_" class="st0" d="M315.6,391.8c0,0,0.2,3.9-3.1,6.1"/>
		</g>
		<g id="XMLID_451_">
			<path id="XMLID_455_" class="st1" d="M329,382.9h2.4V398h-2.6v-12.2l-3.6,2.3l-1.2-1.9L329,382.9z"/>
			<path id="XMLID_452_" class="st1" d="M336,395.7c0,0,2.3,0.3,4.2,0.3c2.4,0,3.6-1.5,3.6-4.4c0,0-2.1,0.8-3.4,0.8
				c-3.3,0-5.2-1.5-5.2-4.7c0-3.1,2.1-5,5.5-5c4,0,5.8,3,5.8,7.8c0,5.9-2.4,7.8-6.3,7.8c-2,0-4.5-0.5-4.5-0.5L336,395.7z
				 M343.8,389.5c0-2.6-0.8-4.6-3.1-4.6c-1.8,0-2.8,1.1-2.8,2.8c0,1.7,1,2.5,2.7,2.5C342,390.2,343.8,389.5,343.8,389.5z"/>
		</g>
	</g>
	<g id="XMLID_258_">
		<g id="XMLID_554_">
			<path id="XMLID_215_" class="st0" d="M88,378.3c0,0-1.2-8.2-13.9-7.2c0,0-19.6-3.6-14.8,13.5c0,0-8.7,7.5,3.7,20.7
				c0,0,3.6,13.3,12.6,9.9c8.9-3.3,8.9-6.6,8.9-6.6s11.4-2.1,10.9-8.8c-0.4-6.6-3.3-7.5-4.9-12.2C88.9,383,88,378.3,88,378.3z"/>
			<path id="XMLID_214_" class="st0" d="M77.2,377.8c0,0,3.5-0.1,6.2,3.2"/>
			<path id="XMLID_213_" class="st0" d="M91.7,396.9c0,0,1.1,4.3-3.2,6.8"/>
			<path id="XMLID_212_" class="st0" d="M68.6,407.6c0,0,3.6,4.3,10.4,1.2"/>
			<path id="XMLID_211_" class="st0" d="M63,380.9c0,0,1.5-2.7,6,1.3"/>
			<path id="XMLID_210_" class="st0" d="M73.2,380c0,0-1.6,7,0.6,9.8c2.2,2.8,1.2,7.4,2.8,9.8c1.6,2.4,5.3,5.9,5.3,5.9"/>
			<path id="XMLID_209_" class="st0" d="M64.5,385.3c0,0,4.5,2.7,7.9,2"/>
			<path id="XMLID_208_" class="st0" d="M86.8,390.3c0,0-4.7,0.4-8.8,3.7c-4.1,3.3-10.8,4.6-10.8,4.6"/>
			<path id="XMLID_207_" class="st0" d="M59.3,391.8c0,0-0.2,3.9,3.1,6.1"/>
		</g>
		<g id="XMLID_445_">
			<path id="XMLID_449_" class="st1" d="M24,383.4c0,0,2.2-0.7,4.5-0.7c3.9,0,5.2,1.3,5.2,4c0,2-1.2,2.9-2,3.4
				c1.4,0.6,2.3,1.2,2.3,3.4c0,3.1-1.5,4.7-5.1,4.7c-2.4,0-5-0.7-5-0.7l0.2-2c0,0,2.6,0.5,4.5,0.5c1.9,0,2.8-0.8,2.8-2.4
				c0-1.5-1.1-2.2-2.6-2.3h-3.1v-2.1h3.1c1.1,0,2.3-1,2.3-2.4c0-1.4-0.8-2-2.7-2c-1.9,0-4.1,0.4-4.1,0.4L24,383.4z"/>
			<path id="XMLID_446_" class="st1" d="M47.3,390.6c0,5.7-2.1,7.6-5.8,7.6c-3.7,0-5.8-1.9-5.8-7.6c0-5.9,2.1-7.9,5.8-7.9
				C45.2,382.7,47.3,384.7,47.3,390.6z M38.3,390.6c0,4.1,1.1,5.4,3.2,5.4c2.1,0,3.1-1.3,3.1-5.4c0-4.4-1-5.7-3.1-5.7
				C39.3,384.9,38.3,386.1,38.3,390.6z"/>
		</g>
	</g>
	<g id="XMLID_269_">
		<g id="XMLID_515_">
			<path id="XMLID_180_" class="st2" d="M299.6,440.3c-1.6,2.6-3.8,4.8-6.3,6.2c-8.8,4.9-16.8-3.2-23.2-9.3
				c-5.4-5.2-7.2-15.3-2.6-21.9c4.2-5.9,11.9-7.4,17.9-4.1c5.9,3.3,13.8,7,16.2,14.6C303.1,430.8,302.1,436.1,299.6,440.3z"/>
			<path id="XMLID_179_" class="st2" d="M278.4,418.6c0,0-4.8,3.9-6.1,8.3"/>
			<path id="XMLID_178_" class="st2" d="M282,417.6c0,0,0.8,3.4,5.2,5.2"/>
			<path id="XMLID_177_" class="st2" d="M271.6,431.4c0.9,0.8,7,3.7,10.2,7.3"/>
			<path id="XMLID_176_" class="st2" d="M284.7,421.3c0,0-5.1,6.7-7.8,13.3"/>
			<path id="XMLID_175_" class="st2" d="M296,424.9c-0.5,0.4-1.4,7.1-0.7,9.7"/>
		</g>
		<g id="XMLID_439_">
			<path id="XMLID_443_" class="st3" d="M309.8,441.9v-2.2l3.8-3.8c2-2,3.1-3.2,3.1-4.8c0-1.7-0.9-2.3-2.9-2.3
				c-1.6,0-3.8,0.4-3.8,0.4l-0.2-2c0,0,2.3-0.7,4.6-0.7c3.4,0,5,1.4,5,4.2c0,2.3-1,3.6-3.4,5.8l-3.3,3.1h7v2.2H309.8z"/>
			<path id="XMLID_440_" class="st3" d="M333.1,434.5c0,5.7-2.1,7.6-5.8,7.6c-3.7,0-5.8-1.9-5.8-7.6c0-5.9,2.1-7.9,5.8-7.9
				C331,426.6,333.1,428.6,333.1,434.5z M324.1,434.5c0,4.1,1.1,5.4,3.2,5.4c2.1,0,3.1-1.3,3.1-5.4c0-4.4-1-5.7-3.1-5.7
				C325.1,428.8,324.1,430,324.1,434.5z"/>
		</g>
	</g>
	<g id="XMLID_259_">
		<g id="XMLID_564_">
			<path id="XMLID_221_" class="st2" d="M75.2,440.3c1.6,2.6,3.8,4.8,6.3,6.2c8.8,4.9,16.8-3.2,23.2-9.3c5.4-5.2,7.2-15.3,2.6-21.9
				c-4.2-5.9-11.9-7.4-17.9-4.1c-5.9,3.3-13.8,7-16.2,14.6C71.7,430.8,72.7,436.1,75.2,440.3z"/>
			<path id="XMLID_220_" class="st2" d="M96.4,418.6c0,0,4.8,3.9,6.1,8.3"/>
			<path id="XMLID_219_" class="st2" d="M92.8,417.6c0,0-0.8,3.4-5.2,5.2"/>
			<path id="XMLID_218_" class="st2" d="M103.2,431.4c-0.9,0.8-7,3.7-10.2,7.3"/>
			<path id="XMLID_217_" class="st2" d="M90.1,421.3c0,0,5.1,6.7,7.8,13.3"/>
			<path id="XMLID_216_" class="st2" d="M78.8,424.9c0.5,0.4,1.4,7.1,0.7,9.7"/>
		</g>
		<g id="XMLID_433_">
			<path id="XMLID_437_" class="st3" d="M44.8,441.9v-2.2l3.8-3.8c2-2,3.1-3.2,3.1-4.8c0-1.7-0.9-2.3-2.9-2.3
				c-1.6,0-3.8,0.4-3.8,0.4l-0.2-2c0,0,2.3-0.7,4.6-0.7c3.4,0,5,1.4,5,4.2c0,2.3-1,3.6-3.4,5.8l-3.3,3.1h7v2.2H44.8z"/>
			<path id="XMLID_434_" class="st3" d="M57.3,439.6c0,0,2.3,0.3,4.2,0.3c2.4,0,3.6-1.5,3.6-4.4c0,0-2.1,0.8-3.4,0.8
				c-3.3,0-5.2-1.5-5.2-4.7c0-3.1,2.1-5,5.5-5c4,0,5.8,3,5.8,7.8c0,5.9-2.4,7.8-6.3,7.8c-2,0-4.5-0.5-4.5-0.5L57.3,439.6z
				 M65.1,433.4c0-2.6-0.8-4.6-3.1-4.6c-1.8,0-2.8,1.1-2.8,2.8c0,1.7,1,2.5,2.7,2.5C63.3,434.1,65.1,433.4,65.1,433.4z"/>
		</g>
	</g>
	<g id="XMLID_268_">
		<g id="XMLID_522_">
			<path id="XMLID_185_" class="st2" d="M279.5,467.5c-3.9,7-11.7,11.1-19.2,4.7c-3.3-2.8-4.1-4.5-10-12.5c-2.8-3.8-3.6-8.5-1.6-13
				c2.7-6,7-9.3,12.9-7.2c8.7,3.2,10.3,3.3,13.9,5.7C283.4,450.7,283.4,460.5,279.5,467.5z"/>
			<path id="XMLID_184_" class="st2" d="M273.3,454.1c0,0-4.7,0.3-9.2,9.8"/>
			<path id="XMLID_183_" class="st2" d="M261.3,443.5c0,0-1.1,3.6,5.3,5.5"/>
			<path id="XMLID_182_" class="st2" d="M253,456.2c0,0,4.1,0.9,6.5,5.5"/>
			<path id="XMLID_181_" class="st2" d="M263,447.6c0,0-4.6,6.1-6.1,10.7"/>
		</g>
		<g id="XMLID_428_">
			<path id="XMLID_431_" class="st3" d="M288.2,478.2v-2.2l3.8-3.8c2-2,3.1-3.2,3.1-4.8c0-1.7-0.9-2.3-2.9-2.3
				c-1.6,0-3.8,0.4-3.8,0.4l-0.2-2c0,0,2.3-0.7,4.6-0.7c3.4,0,5,1.4,5,4.2c0,2.3-1,3.6-3.4,5.8l-3.3,3.1h7v2.2H288.2z"/>
			<path id="XMLID_429_" class="st3" d="M306.2,463.2h2.4v15.1H306V466l-3.6,2.3l-1.2-1.9L306.2,463.2z"/>
		</g>
	</g>
	<g id="XMLID_260_">
		<g id="XMLID_571_">
			<path id="XMLID_226_" class="st2" d="M95.3,467.5c3.9,7,11.7,11.1,19.2,4.7c3.3-2.8,4.1-4.5,10-12.5c2.8-3.8,3.6-8.5,1.6-13
				c-2.7-6-7-9.3-12.9-7.2c-8.7,3.2-10.3,3.3-13.9,5.7C91.4,450.7,91.4,460.5,95.3,467.5z"/>
			<path id="XMLID_225_" class="st2" d="M101.5,454.1c0,0,4.7,0.3,9.2,9.8"/>
			<path id="XMLID_224_" class="st2" d="M113.5,443.5c0,0,1.1,3.6-5.3,5.5"/>
			<path id="XMLID_223_" class="st2" d="M121.8,456.2c0,0-4.1,0.9-6.5,5.5"/>
			<path id="XMLID_222_" class="st2" d="M111.8,447.6c0,0,4.6,6.1,6.1,10.7"/>
		</g>
		<g id="XMLID_421_">
			<path id="XMLID_426_" class="st3" d="M61,478.2v-2.2l3.8-3.8c2-2,3.1-3.2,3.1-4.8c0-1.7-0.9-2.3-2.9-2.3c-1.6,0-3.8,0.4-3.8,0.4
				l-0.2-2c0,0,2.3-0.7,4.6-0.7c3.4,0,5,1.4,5,4.2c0,2.3-1,3.6-3.4,5.8l-3.3,3.1h7v2.2H61z"/>
			<path id="XMLID_422_" class="st3" d="M84,466.9c0,1.9-0.5,2.6-2.1,3.5c1.4,0.9,2.3,1.7,2.3,3.7c0,3.2-2.6,4.3-5.9,4.3
				c-3.2,0-5.8-0.9-5.8-4.1c0-2.2,0.9-3,2.2-4c-1.4-0.9-2-1.8-2-3.5c0-2.6,2.2-4,5.5-4C81.7,462.9,84,464.3,84,466.9z M81.5,473.8
				c0-1.2-0.8-1.8-2-2.2h-2.2c-1.2,0.4-1.9,1.1-1.9,2.2c0,1.7,1.2,2.4,3,2.4C80.3,476.2,81.5,475.5,81.5,473.8z M75.6,467.3
				c0,1,0.6,1.6,1.6,2.2h2.2c1.1-0.5,1.7-1.1,1.7-2.2c0-1.4-1-2.1-2.8-2.1C76.6,465.2,75.6,465.9,75.6,467.3z"/>
		</g>
	</g>
	<g id="XMLID_267_">
		<g id="XMLID_528_">
			<path id="XMLID_187_" class="st4" d="M236.1,466.2c0,0,1.9-3.5,8.7-0.6c6.8,3,12.3,3.3,13,12.4c0.7,9.1-2.3,9.6-6.1,11.1
				c-3.8,1.4-12.2,0.8-13.6-3.3c-1.4-4,0.4-7.3-0.7-8.9C236.3,475.4,233.8,469.9,236.1,466.2z"/>
			<path id="XMLID_186_" class="st4" d="M251.2,472.9c0,0,0.1,2.8-2.2,5.4c-2.3,2.7-5.5,4.8-7.6,5.2"/>
		</g>
		<g id="XMLID_416_">
			<path id="XMLID_419_" class="st5" d="M257.8,507.3v-2.2l3.8-3.8c2-2,3.1-3.2,3.1-4.8c0-1.7-0.9-2.3-2.9-2.3
				c-1.6,0-3.8,0.4-3.8,0.4l-0.2-2c0,0,2.3-0.7,4.6-0.7c3.4,0,5,1.4,5,4.2c0,2.3-1,3.6-3.4,5.8l-3.3,3.1h7v2.2H257.8z"/>
			<path id="XMLID_417_" class="st5" d="M270.3,507.3v-2.2l3.8-3.8c2-2,3.1-3.2,3.1-4.8c0-1.7-0.9-2.3-2.9-2.3
				c-1.6,0-3.8,0.4-3.8,0.4l-0.2-2c0,0,2.3-0.7,4.6-0.7c3.4,0,5,1.4,5,4.2c0,2.3-1,3.6-3.4,5.8l-3.3,3.1h7v2.2H270.3z"/>
		</g>
	</g>
	<g id="XMLID_261_">
		<g id="XMLID_577_">
			<path id="XMLID_228_" class="st4" d="M138.7,466.2c0,0-1.9-3.5-8.7-0.6c-6.8,3-12.3,3.3-13,12.4c-0.7,9.1,2.3,9.6,6.1,11.1
				c3.8,1.4,12.2,0.8,13.6-3.3c1.4-4-0.4-7.3,0.7-8.9C138.5,475.4,141.1,469.9,138.7,466.2z"/>
			<path id="XMLID_227_" class="st4" d="M123.6,472.9c0,0-0.1,2.8,2.2,5.4c2.3,2.7,5.5,4.8,7.6,5.2"/>
		</g>
		<g id="XMLID_411_">
			<path id="XMLID_414_" class="st5" d="M96.5,507.3v-2.2l3.8-3.8c2-2,3.1-3.2,3.1-4.8c0-1.7-0.9-2.3-2.9-2.3
				c-1.6,0-3.8,0.4-3.8,0.4l-0.2-2c0,0,2.3-0.7,4.6-0.7c3.4,0,5,1.4,5,4.2c0,2.3-1,3.6-3.4,5.8l-3.3,3.1h7v2.2H96.5z"/>
			<path id="XMLID_412_" class="st5" d="M109.2,492.2h9.7v3l-5.7,12.3l-2.4-0.7l5.5-11.7v-0.7h-7.1V492.2z"/>
		</g>
	</g>
	<g id="XMLID_265_">
		<g id="XMLID_531_">
			<path id="XMLID_189_" class="st6" d="M228.5,503.3c-1.4,0.3-3.1,0-4.8-0.7c-0.8-0.3-6.1,0.3-9.4,0.1c-3.3-0.3-1.9-4.3-0.2-6.8
				c1.7-2.4,0.7-5.7,0.4-9.5c-0.7-7.3,8.9-11.4,13.6-5.9c2.5,2.9,4.2,5.8,7.1,6.3c2.9,0.5,6.8,2.2,4.8,4.8c-2.1,2.6-6.2,6-6.5,6.8
				C232.4,501.2,230.6,502.8,228.5,503.3z"/>
			<path id="XMLID_188_" class="st6" d="M232.7,489.4c0,0-10.3,6-14.5,6.2"/>
		</g>
		<g id="XMLID_406_">
			<path id="XMLID_409_" class="st7" d="M222.1,528.3v-2.2l3.8-3.8c2-2,3.1-3.2,3.1-4.8c0-1.7-0.9-2.3-2.9-2.3
				c-1.6,0-3.8,0.4-3.8,0.4l-0.2-2c0,0,2.3-0.7,4.6-0.7c3.4,0,5,1.4,5,4.2c0,2.3-1,3.6-3.4,5.8l-3.3,3.1h7v2.2H222.1z"/>
			<path id="XMLID_407_" class="st7" d="M234.6,513.7c0,0,2.2-0.7,4.5-0.7c3.9,0,5.2,1.3,5.2,4c0,2-1.2,2.9-2,3.4
				c1.4,0.6,2.3,1.2,2.3,3.4c0,3.1-1.5,4.7-5.1,4.7c-2.4,0-5-0.7-5-0.7l0.2-2c0,0,2.6,0.5,4.5,0.5c1.9,0,2.8-0.8,2.8-2.4
				c0-1.5-1.1-2.2-2.6-2.3h-3.1v-2.1h3.1c1.1,0,2.3-1,2.3-2.4c0-1.4-0.8-2-2.7-2c-1.9,0-4.1,0.4-4.1,0.4L234.6,513.7z"/>
		</g>
	</g>
	<g id="XMLID_262_">
		<g id="XMLID_580_">
			<path id="XMLID_230_" class="st6" d="M146.3,503.3c1.4,0.3,3.1,0,4.8-0.7c0.8-0.3,6.1,0.3,9.4,0.1c3.3-0.3,1.9-4.3,0.2-6.8
				c-1.7-2.4-0.7-5.7-0.4-9.5c0.7-7.3-8.9-11.4-13.6-5.9c-2.5,2.9-4.2,5.8-7.1,6.3c-2.9,0.5-6.8,2.2-4.8,4.8c2.1,2.6,6.2,6,6.5,6.8
				C142.5,501.2,144.2,502.8,146.3,503.3z"/>
			<path id="XMLID_229_" class="st6" d="M142.1,489.4c0,0,10.3,6,14.5,6.2"/>
		</g>
		<g id="XMLID_400_">
			<path id="XMLID_404_" class="st7" d="M130,528.3v-2.2l3.7-3.8c1.9-2,3.1-3.2,3.1-4.8c0-1.7-0.9-2.3-2.8-2.3
				c-1.6,0-3.7,0.4-3.7,0.4l-0.2-2c0,0,2.2-0.7,4.4-0.7c3.3,0,4.9,1.4,4.9,4.2c0,2.3-1,3.6-3.3,5.8l-3.2,3.1h6.8v2.2H130z"/>
			<path id="XMLID_401_" class="st7" d="M151.9,515.5c0,0-2.2-0.3-4.1-0.3c-2.3,0-3.5,1.6-3.5,4.2c0,0,1.9-0.7,3.3-0.7
				c3.3,0,5.1,1.5,5.1,4.8c0,3.3-2,5-5.4,5c-3.9,0-5.6-2.9-5.6-7.8c0-5.6,2.4-7.8,6.1-7.8c1.9,0,4.4,0.5,4.4,0.5L151.9,515.5z
				 M144.2,521.6c0,2.6,0.8,4.7,3,4.7c1.8,0,2.8-1,2.8-2.8c0-1.7-1-2.6-2.7-2.6C145.9,521,144.2,521.6,144.2,521.6z"/>
		</g>
	</g>
	<g id="XMLID_264_">
		<g id="XMLID_534_">
			<path id="XMLID_191_" class="st6" d="M200.7,509.4c0,0-3.7,0.8-5.3-0.8c-1.6-1.6-3.7-1.9-6.8-3.4c-3-1.5,0.1-4.8,1.1-6
				c1-1.2,2.4-3.2,3.9-7.8c0.5-1.7,1.3-3,2.1-3.9c1.4-1.7,3.8-1.9,5.5-0.6c0.9,0.8,1.9,1.9,2.8,3.4c2.4,4.3,4.1,5.9,5.4,6.9
				c1.2,1,5,3.6,2.3,5.6c-2.7,2.1-4.7,2.7-5.9,4.7C204.5,509.5,200.7,509.4,200.7,509.4z"/>
			<path id="XMLID_190_" class="st6" d="M204.4,498.6c0,0-5.5,1.4-10.1,1"/>
		</g>
		<g id="XMLID_395_">
			<path id="XMLID_398_" class="st7" d="M191,535.7v-2.2l3.8-3.8c2-2,3.1-3.2,3.1-4.8c0-1.7-0.9-2.3-2.9-2.3c-1.6,0-3.8,0.4-3.8,0.4
				l-0.2-2c0,0,2.3-0.7,4.6-0.7c3.4,0,5,1.4,5,4.2c0,2.3-1,3.6-3.4,5.8l-3.3,3.1h7v2.2H191z"/>
			<path id="XMLID_396_" class="st7" d="M209.8,533h-6.9v-1.9l4.1-10.4h2.9l-4.3,10.2h4.3v-4.4h2.6v4.4h1.7v2.2h-1.7v2.7h-2.6V533z"
				/>
		</g>
	</g>
	<g id="XMLID_263_">
		<g id="XMLID_583_">
			<path id="XMLID_232_" class="st6" d="M174.1,509.4c0,0,3.7,0.8,5.3-0.8c1.6-1.6,3.7-1.9,6.8-3.4c3-1.5-0.1-4.8-1.1-6
				c-1-1.2-2.4-3.2-3.9-7.8c-0.5-1.7-1.3-3-2.1-3.9c-1.4-1.7-3.8-1.9-5.5-0.6c-0.9,0.8-1.9,1.9-2.8,3.4c-2.4,4.3-4.1,5.9-5.4,6.9
				c-1.2,1-5,3.6-2.3,5.6c2.7,2.1,4.7,2.7,5.9,4.7C170.3,509.5,174.1,509.4,174.1,509.4z"/>
			<path id="XMLID_231_" class="st6" d="M170.4,498.6c0,0,5.5,1.4,10.1,1"/>
		</g>
		<g id="XMLID_390_">
			<path id="XMLID_393_" class="st7" d="M161.6,535.7v-2.2l3.8-3.8c2-2,3.1-3.2,3.1-4.8c0-1.7-0.9-2.3-2.9-2.3
				c-1.6,0-3.8,0.4-3.8,0.4l-0.2-2c0,0,2.3-0.7,4.6-0.7c3.4,0,5,1.4,5,4.2c0,2.3-1,3.6-3.4,5.8l-3.3,3.1h7v2.2H161.6z"/>
			<path id="XMLID_391_" class="st7" d="M183.9,520.6v2.2h-7.1l-0.4,4c0,0,1.6-0.7,3.1-0.7c3.1,0,5,1.3,5,4.5c0,3.4-1.9,5.3-5.2,5.3
				c-2.4,0-5.3-0.8-5.3-0.8l0.3-1.9c0,0,2.8,0.5,4.7,0.5c1.8,0,2.9-1,2.9-2.8c0-1.9-1-2.5-2.6-2.5c-1.8,0-3.2,0.6-3.2,0.6l-1.6-0.3
				l0.4-8H183.9z"/>
		</g>
	</g>
	<g id="XMLID_254_">
		<g id="XMLID_485_">
			<path id="XMLID_486_" class="st1" d="M29.5,235.1h2.4v15.1h-2.6v-12.2l-3.6,2.3l-1.2-1.9L29.5,235.1z"/>
		</g>
		<g id="XMLID_324_">
			<path id="XMLID_80_" class="st0" d="M43.5,252.8c1.9,8.7,12.7,14.5,21.4,13.1c14.7-2.4,17.6-10.2,14.2-22.2
				c-3.4-12.1-16.9-18.1-24.5-18.9c-7.6-0.8-12.3,7.7-10.3,15.4c0.5,1.9-0.4,5.5-0.8,7.4C43.1,249.4,43.2,251.2,43.5,252.8z"/>
			<path id="XMLID_79_" class="st0" d="M49.6,247c0,0,8.4-0.2,10,0c1.7,0.2,12.3,6.3,12.3,6.3"/>
			<path id="XMLID_78_" class="st0" d="M56.8,258.2c0,0,3.3-2.2,3.8-3.9c0.5-1.6,0.8-5.6,0.8-5.6s4.3-4,4.4-4.8
				c0.1-0.8-0.9-7.7-0.9-7.7"/>
			<line id="XMLID_77_" class="st0" x1="60.4" y1="255.7" x2="63.6" y2="259.2"/>
			<path id="XMLID_76_" class="st0" d="M50.7,239.5c0,0,2.7-0.5,2.7-5"/>
			<path id="XMLID_75_" class="st0" d="M74.5,245.8c0,0-2.7-1.9-3.8-6"/>
		</g>
	</g>
	<g id="XMLID_253_">
		<g id="XMLID_387_">
			<path id="XMLID_388_" class="st1" d="M26.2,213.4v-2.2l3.8-3.8c2-2,3.1-3.2,3.1-4.8c0-1.7-0.9-2.3-2.9-2.3
				c-1.6,0-3.8,0.4-3.8,0.4l-0.2-2c0,0,2.3-0.7,4.6-0.7c3.4,0,5,1.4,5,4.2c0,2.3-1,3.6-3.4,5.8l-3.3,3.1h7v2.2H26.2z"/>
		</g>
		<g id="XMLID_314_">
			<path id="XMLID_74_" class="st0" d="M48.9,222.7c2.7,2.3,8.9,2.7,11.8,3.4c3.3,0.8,10.4,3.9,14,0.6c3.6-3.3,6.6-14.5,4.5-20.5
				c-2.2-6-13.9-13.3-17.7-13.8c-3.7-0.4-10.4,0.8-12,6.3c-1.6,5.5-0.4,12.2-0.4,12.2c-0.5,3.1-3,8-1,11
				C48.3,222.1,48.5,222.4,48.9,222.7z"/>
			<path id="XMLID_73_" class="st0" d="M60.1,221.9c0,0,1.9-0.7,6.2,0.9"/>
			<path id="XMLID_72_" class="st0" d="M63.2,221.9c0,0-0.2-10.4,8.2-10.7"/>
			<path id="XMLID_71_" class="st0" d="M53.6,210.6c0,0,9.8,3.6,11.5-8.4"/>
			<path id="XMLID_70_" class="st0" d="M66.2,213.4c0,0-1.9-0.7-4.3-4.2"/>
			<path id="XMLID_69_" class="st0" d="M55.5,219.6c0,0-1.5-1-2.6-4.8"/>
			<path id="XMLID_68_" class="st0" d="M54.6,203.5c0,0,1.1-4.3,5.3-0.9"/>
			<path id="XMLID_67_" class="st0" d="M68.5,222.9c0,0,1-0.6,2.9-1"/>
			<path id="XMLID_66_" class="st0" d="M75.1,209.8c0,0-1.4-0.2-2.9-3.6"/>
		</g>
	</g>
	<g id="XMLID_252_">
		<g id="XMLID_379_">
			<path id="XMLID_380_" class="st1" d="M32.2,158.9c0,0,2.2-0.7,4.5-0.7c3.9,0,5.2,1.3,5.2,4c0,2-1.2,2.9-2,3.4
				c1.4,0.6,2.3,1.2,2.3,3.4c0,3.1-1.5,4.7-5.1,4.7c-2.4,0-5-0.7-5-0.7l0.2-2c0,0,2.6,0.5,4.5,0.5c1.9,0,2.8-0.8,2.8-2.4
				c0-1.5-1.1-2.2-2.6-2.3h-3.1v-2.1h3.1c1.1,0,2.3-1,2.3-2.4c0-1.4-0.8-2-2.7-2c-1.9,0-4.1,0.4-4.1,0.4L32.2,158.9z"/>
		</g>
		<g id="XMLID_305_">
			<path id="XMLID_65_" class="st0" d="M52.2,182.5c0,0,0.6,5.6,6.6,8.2c6,2.6,9.3,5.6,12.1,5.8c2.9,0.2,12.4,3.6,13-5.4
				c0.6-8.9,3.6-20,3.3-22.8c-0.3-2.7-2.6-8.2-10.7-10.2c-8.1-2-15.3-1-16.9-0.3c-1.7,0.6-5.7,5.7-6.4,10.7
				C52.5,173.5,52.2,182.5,52.2,182.5z"/>
			<path id="XMLID_64_" class="st0" d="M73.1,191.5c0,0,4.8-1.7,6.1-3.3"/>
			<path id="XMLID_63_" class="st0" d="M81.8,170.5c0,0-0.8-4.6-3.7-7.1"/>
			<path id="XMLID_62_" class="st0" d="M56.6,168.2c0,0,1.8-4.1,4.7-5.4"/>
			<path id="XMLID_61_" class="st0" d="M59.6,185.3c-0.8-2.8-2-5.9-3-6.6"/>
			<path id="XMLID_60_" class="st0" d="M64.4,188.1c0,0,6.5-1.6,7.1-7.2c0,0,4.1,0.3,6.1-1.2c2-1.5,5.6-0.8,5.6-0.8"/>
			<path id="XMLID_59_" class="st0" d="M71.6,180.9c0,0-2.2-7.2-3.6-7.4c-1.4-0.2-9.9,0.2-9.9,0.2l-1.7,1.5"/>
			<path id="XMLID_58_" class="st0" d="M66.4,161.7c0.4,0.3,2.8,3.7,2.8,3.7l-0.8,5.4"/>
		</g>
	</g>
	<g id="XMLID_251_">
		<g id="XMLID_371_">
			<path id="XMLID_372_" class="st3" d="M46.2,133.9h-6.9v-1.9l4.1-10.4h2.9l-4.3,10.2h4.3v-4.4h2.6v4.4h1.7v2.2h-1.7v2.7h-2.6
				V133.9z"/>
		</g>
		<g id="XMLID_298_">
			<path id="XMLID_57_" class="st2" d="M59.3,141.7c0,0-0.4,9.6,9.3,13.5c9.7,3.8,21.1,6.9,24.4,4.5c3.3-2.4,8.1-8.1,7.8-21.2
				c-0.3-13-26-16-30-15C66.8,124.5,59.5,129.4,59.3,141.7z"/>
			<path id="XMLID_56_" class="st2" d="M72.4,146.9c0,0-2.6-8.4,3.6-16.9"/>
			<path id="XMLID_55_" class="st2" d="M91,152.4c0.5-0.6,3.2-1.7,1.4-11.8"/>
			<line id="XMLID_54_" class="st2" x1="80.2" y1="149.2" x2="84.6" y2="134.3"/>
			<path id="XMLID_53_" class="st2" d="M82.2,129.1c0,0-0.2,8.1,7.3,5"/>
			<path id="XMLID_52_" class="st2" d="M75.9,150.3c0,0,6.1-4.1,10.2,3"/>
		</g>
	</g>
	<g id="XMLID_249_">
		<g id="XMLID_363_">
			<path id="XMLID_364_" class="st3" d="M65.5,90.4v2.2h-7.1l-0.4,4c0,0,1.6-0.7,3.1-0.7c3.1,0,5,1.3,5,4.5c0,3.4-1.9,5.3-5.2,5.3
				c-2.4,0-5.3-0.8-5.3-0.8l0.3-1.9c0,0,2.8,0.5,4.7,0.5c1.8,0,2.9-1,2.9-2.8c0-1.9-1-2.5-2.6-2.5c-1.8,0-3.2,0.6-3.2,0.6l-1.6-0.3
				l0.4-8H65.5z"/>
		</g>
		<g id="XMLID_292_">
			<path id="XMLID_51_" class="st2" d="M78.9,94.7c4.3-4.1,10.1-6.3,15.8-0.8c6.7,6.5,15.8,11.9,16.2,17.1c0.4,5.2-2.1,8.6-2.1,8.6
				s-1.4,4-5.9,6.7c-4.5,2.7-14.1-1.7-23.3-3.4c-5.7-1.1-9.5-7.1-9-12.3c0.3-3.3,1.8-6.3,3.3-9.2C75.1,99.2,76.8,96.7,78.9,94.7z"/>
			<path id="XMLID_50_" class="st2" d="M81.8,115.6c0,0,0.3-9.5,7.1-13.7"/>
			<line id="XMLID_49_" class="st2" x1="92.5" y1="117" x2="97.4" y2="106.3"/>
			<path id="XMLID_48_" class="st2" d="M94.9,103.7c0,0,0.4,3.2,4.4,3.6"/>
			<path id="XMLID_47_" class="st2" d="M89.2,117.7c0,0,5.8-2.4,6.5,3.4"/>
		</g>
	</g>
	<g id="XMLID_248_">
		<g id="XMLID_354_">
			<path id="XMLID_355_" class="st5" d="M87.4,58.9c0,0-2.3-0.3-4.2-0.3c-2.4,0-3.6,1.6-3.6,4.2c0,0,2-0.7,3.4-0.7
				c3.4,0,5.2,1.5,5.2,4.8c0,3.3-2.1,5-5.5,5c-4,0-5.7-2.9-5.7-7.8c0-5.6,2.4-7.8,6.3-7.8c2,0,4.5,0.5,4.5,0.5L87.4,58.9z M79.6,65
				c0,2.6,0.8,4.7,3.1,4.7c1.8,0,2.8-1,2.8-2.8c0-1.7-1-2.6-2.8-2.6C81.2,64.3,79.6,65,79.6,65z"/>
		</g>
		<g id="XMLID_289_">
			<path id="XMLID_46_" class="st4" d="M91.6,81.4c0,0.2-1.4,10.7,7.8,13.9c8.6,2.9,21.2,6.7,25.4-4.1c0.3-0.9,0.6-1.8,0.6-2.8
				c0-1.2-0.4-2.3-0.7-3.5c-1.5-4.7-2.3-12.9-6.6-15.8c-6.5-4.3-18.5-3-23.5,3.1C92,75.3,92.1,77.7,91.6,81.4z"/>
			<path id="XMLID_45_" class="st4" d="M114.8,75.5l-3.7,3c-1.4,7.8-6.1,9.1-6.1,9.1s-1.1,1.6-0.4,3.3"/>
		</g>
	</g>
	<g id="XMLID_247_">
		<g id="XMLID_346_">
			<path id="XMLID_347_" class="st7" d="M110.2,29.1h9.7v3l-5.7,12.3l-2.4-0.7l5.5-11.7v-0.7h-7.1V29.1z"/>
		</g>
		<g id="XMLID_286_">
			<path id="XMLID_44_" class="st6" d="M120.5,61c-0.8,2.4-1.2,4.8-1.1,7.1c0,1.4,0.2,3,1.3,4c1.9,1.9,7.1,1.8,9.6,2.6
				c2.9,0.8,5.8,2.3,8.8,2.8c2.4,0.4,9.9-3.4,10.1-9.6c0.2-6.2-4.7-7.1-1-14.6c3.8-7.8-14.8-5.8-18-4.2
				C125.3,51.5,122.2,55.9,120.5,61z"/>
			<path id="XMLID_43_" class="st6" d="M129.6,69.1c0,0,8.7-5.9,12.4-11.8"/>
		</g>
	</g>
	<g id="XMLID_246_">
		<g id="XMLID_335_">
			<path id="XMLID_336_" class="st7" d="M165.3,15.9c0,1.9-0.5,2.6-2.1,3.5c1.4,0.9,2.3,1.7,2.3,3.7c0,3.2-2.6,4.3-5.9,4.3
				c-3.2,0-5.8-0.9-5.8-4.1c0-2.2,0.9-3,2.2-4c-1.4-0.9-2-1.8-2-3.5c0-2.6,2.2-4,5.5-4C163,11.9,165.3,13.3,165.3,15.9z M162.8,22.8
				c0-1.2-0.8-1.8-2-2.2h-2.2c-1.2,0.4-1.9,1.1-1.9,2.2c0,1.7,1.2,2.4,3,2.4C161.6,25.2,162.8,24.5,162.8,22.8z M156.9,16.3
				c0,1,0.6,1.6,1.6,2.2h2.2c1.1-0.5,1.7-1.1,1.7-2.2c0-1.4-1-2.1-2.8-2.1C158,14.2,156.9,14.9,156.9,16.3z"/>
		</g>
		<g id="XMLID_283_">
			<path id="XMLID_42_" class="st6" d="M148.1,46.3c0,0,1.4-6.5,19.2-9.9c17.8-3.4,18,1.9,18.4,3.6c0.4,1.7-0.2,2.2-4.4,6.2
				c-4.2,4,0.5,13.5-1.6,16.5c-2.1,3-15.6,6.3-16.7,5s-6.5-15.6-8.3-15.5C152.9,52.4,145.7,49.5,148.1,46.3z"/>
			<path id="XMLID_41_" class="st6" d="M159.9,47.9c0,0,3.7-3.1,14-3.7"/>
		</g>
	</g>
	<g id="XMLID_233_">
		<g id="XMLID_479_">
			<path id="XMLID_483_" class="st1" d="M340.6,235.1h2.4v15.1h-2.6v-12.2l-3.6,2.3l-1.2-1.9L340.6,235.1z"/>
			<path id="XMLID_480_" class="st1" d="M357.5,237.3c0,0-2.3-0.3-4.2-0.3c-2.4,0-3.6,1.6-3.6,4.2c0,0,2-0.7,3.4-0.7
				c3.4,0,5.2,1.5,5.2,4.8c0,3.3-2.1,5-5.5,5c-4,0-5.7-2.9-5.7-7.8c0-5.6,2.4-7.8,6.3-7.8c2,0,4.5,0.5,4.5,0.5L357.5,237.3z
				 M349.6,243.5c0,2.6,0.8,4.7,3.1,4.7c1.8,0,2.8-1,2.8-2.8c0-1.7-1-2.6-2.8-2.6C351.3,242.8,349.6,243.5,349.6,243.5z"/>
		</g>
		<g id="XMLID_276_">
			<path id="XMLID_40_" class="st0" d="M328,252.8c-1.9,8.7-12.7,14.5-21.4,13.1c-14.7-2.4-17.6-10.2-14.2-22.2
				c3.4-12.1,16.9-18.1,24.5-18.9c7.6-0.8,12.3,7.7,10.3,15.4c-0.5,1.9,0.4,5.5,0.8,7.4C328.4,249.4,328.3,251.2,328,252.8z"/>
			<path id="XMLID_39_" class="st0" d="M321.9,247c0,0-8.4-0.2-10,0c-1.7,0.2-12.3,6.3-12.3,6.3"/>
			<path id="XMLID_38_" class="st0" d="M314.7,258.2c0,0-3.3-2.2-3.8-3.9s-0.8-5.6-0.8-5.6s-4.3-4-4.4-4.8c-0.1-0.8,0.9-7.7,0.9-7.7
				"/>
			<line id="XMLID_37_" class="st0" x1="311.1" y1="255.7" x2="307.9" y2="259.2"/>
			<path id="XMLID_36_" class="st0" d="M320.8,239.5c0,0-2.7-0.5-2.7-5"/>
			<path id="XMLID_35_" class="st0" d="M297,245.8c0,0,2.7-1.9,3.8-6"/>
		</g>
	</g>
	<g id="XMLID_236_">
		<g id="XMLID_382_">
			<path id="XMLID_385_" class="st1" d="M338.1,198.3h2.4v15.1h-2.6v-12.2l-3.6,2.3l-1.2-1.9L338.1,198.3z"/>
			<path id="XMLID_383_" class="st1" d="M354.9,198.3v2.2h-7.1l-0.4,4c0,0,1.6-0.7,3.1-0.7c3.1,0,5,1.3,5,4.5c0,3.4-1.9,5.3-5.2,5.3
				c-2.4,0-5.3-0.8-5.3-0.8l0.3-1.9c0,0,2.8,0.5,4.7,0.5c1.8,0,2.9-1,2.9-2.8c0-1.9-1-2.5-2.6-2.5c-1.8,0-3.2,0.6-3.2,0.6l-1.6-0.3
				l0.4-8H354.9z"/>
		</g>
		<g id="XMLID_266_">
			<path id="XMLID_34_" class="st0" d="M322.6,222.7c-2.7,2.3-8.9,2.7-11.8,3.4c-3.3,0.8-10.4,3.9-14,0.6
				c-3.6-3.3-6.6-14.5-4.5-20.5c2.2-6,13.9-13.3,17.7-13.8c3.7-0.4,10.4,0.8,12,6.3c1.6,5.5,0.4,12.2,0.4,12.2c0.5,3.1,3,8,1,11
				C323.2,222.1,322.9,222.4,322.6,222.7z"/>
			<path id="XMLID_33_" class="st0" d="M311.4,221.9c0,0-1.9-0.7-6.2,0.9"/>
			<path id="XMLID_32_" class="st0" d="M308.3,221.9c0,0,0.2-10.4-8.2-10.7"/>
			<path id="XMLID_31_" class="st0" d="M317.9,210.6c0,0-9.8,3.6-11.5-8.4"/>
			<path id="XMLID_30_" class="st0" d="M305.3,213.4c0,0,1.9-0.7,4.3-4.2"/>
			<path id="XMLID_29_" class="st0" d="M316,219.6c0,0,1.5-1,2.6-4.8"/>
			<path id="XMLID_28_" class="st0" d="M316.9,203.5c0,0-1.1-4.3-5.3-0.9"/>
			<path id="XMLID_27_" class="st0" d="M303,222.9c0,0-1-0.6-2.8-1"/>
			<path id="XMLID_26_" class="st0" d="M296.4,209.8c0,0,1.4-0.2,2.9-3.6"/>
		</g>
	</g>
	<g id="XMLID_237_">
		<g id="XMLID_374_">
			<path id="XMLID_377_" class="st1" d="M333,158.4h2.4v15.1h-2.6v-12.2l-3.6,2.3l-1.2-1.9L333,158.4z"/>
			<path id="XMLID_375_" class="st1" d="M346.3,170.8h-6.9v-1.9l4.1-10.4h2.9l-4.3,10.2h4.3v-4.4h2.6v4.4h1.7v2.2h-1.7v2.7h-2.6
				V170.8z"/>
		</g>
		<g id="XMLID_257_">
			<path id="XMLID_25_" class="st0" d="M319.3,182.5c0,0-0.6,5.6-6.6,8.2c-6,2.6-9.3,5.6-12.1,5.8c-2.9,0.2-12.4,3.6-13-5.4
				c-0.6-8.9-3.6-20-3.3-22.8c0.3-2.7,2.6-8.2,10.7-10.2c8.1-2,15.3-1,16.9-0.3c1.7,0.6,5.7,5.7,6.4,10.7
				C319,173.5,319.3,182.5,319.3,182.5z"/>
			<path id="XMLID_24_" class="st0" d="M298.4,191.5c0,0-4.8-1.7-6.1-3.3"/>
			<path id="XMLID_23_" class="st0" d="M289.7,170.5c0,0,0.8-4.6,3.7-7.1"/>
			<path id="XMLID_22_" class="st0" d="M314.9,168.2c0,0-1.8-4.1-4.7-5.4"/>
			<path id="XMLID_21_" class="st0" d="M311.9,185.3c0.8-2.8,2-5.9,3-6.6"/>
			<path id="XMLID_20_" class="st0" d="M307,188.1c0,0-6.5-1.6-7.1-7.2c0,0-4.1,0.3-6.1-1.2c-2-1.5-5.6-0.8-5.6-0.8"/>
			<path id="XMLID_19_" class="st0" d="M299.9,180.9c0,0,2.2-7.2,3.6-7.4s9.9,0.2,9.9,0.2l1.7,1.5"/>
			<path id="XMLID_18_" class="st0" d="M305.1,161.7c-0.4,0.3-2.8,3.7-2.8,3.7l0.8,5.4"/>
		</g>
	</g>
	<g id="XMLID_239_">
		<g id="XMLID_366_">
			<path id="XMLID_369_" class="st3" d="M323.9,121.5h2.4v15.1h-2.6v-12.2l-3.6,2.3l-1.2-1.9L323.9,121.5z"/>
			<path id="XMLID_367_" class="st3" d="M330.8,122c0,0,2.2-0.7,4.5-0.7c3.9,0,5.2,1.3,5.2,4c0,2-1.2,2.9-2,3.4
				c1.4,0.6,2.3,1.2,2.3,3.4c0,3.1-1.5,4.7-5.1,4.7c-2.4,0-5-0.7-5-0.7l0.2-2c0,0,2.6,0.5,4.5,0.5c1.9,0,2.8-0.8,2.8-2.4
				c0-1.5-1.1-2.2-2.6-2.3h-3.1v-2.1h3.1c1.1,0,2.3-1,2.3-2.3c0-1.4-0.8-2-2.7-2c-1.9,0-4.1,0.4-4.1,0.4L330.8,122z"/>
		</g>
		<g id="XMLID_250_">
			<path id="XMLID_17_" class="st2" d="M312.2,141.7c0,0,0.4,9.6-9.3,13.5c-9.7,3.8-21.1,6.9-24.4,4.5c-3.3-2.4-8.1-8.1-7.8-21.2
				c0.3-13,26-16,30-15C304.6,124.5,312,129.4,312.2,141.7z"/>
			<path id="XMLID_16_" class="st2" d="M299,146.9c0,0,2.6-8.4-3.6-16.9"/>
			<path id="XMLID_15_" class="st2" d="M280.5,152.4c-0.5-0.6-3.2-1.7-1.4-11.8"/>
			<line id="XMLID_14_" class="st2" x1="291.3" y1="149.2" x2="286.9" y2="134.3"/>
			<path id="XMLID_13_" class="st2" d="M289.3,129.1c0,0,0.2,8.1-7.3,5"/>
			<path id="XMLID_12_" class="st2" d="M295.6,150.3c0,0-6.1-4.1-10.2,3"/>
		</g>
	</g>
	<g id="XMLID_240_">
		<g id="XMLID_358_">
			<path id="XMLID_361_" class="st3" d="M312.8,90.4h2.4v15.1h-2.6V93.3l-3.6,2.3l-1.2-1.9L312.8,90.4z"/>
			<path id="XMLID_359_" class="st3" d="M319.8,105.5v-2.2l3.8-3.8c2-2,3.1-3.2,3.1-4.8c0-1.7-0.9-2.3-2.9-2.3
				c-1.6,0-3.8,0.4-3.8,0.4l-0.2-2c0,0,2.3-0.7,4.6-0.7c3.4,0,5,1.4,5,4.2c0,2.3-1,3.6-3.4,5.8l-3.3,3.1h7v2.2H319.8z"/>
		</g>
		<g id="XMLID_244_">
			<path id="XMLID_11_" class="st2" d="M292.6,94.7c-4.3-4.1-10.1-6.3-15.8-0.8c-6.7,6.5-15.8,11.9-16.2,17.1
				c-0.4,5.2,2.1,8.6,2.1,8.6s1.4,4,5.9,6.7c4.5,2.7,14.1-1.7,23.3-3.4c5.7-1.1,9.5-7.1,9-12.3c-0.3-3.3-1.8-6.3-3.3-9.2
				C296.4,99.2,294.7,96.7,292.6,94.7z"/>
			<path id="XMLID_10_" class="st2" d="M289.7,115.6c0,0-0.3-9.5-7.1-13.7"/>
			<line id="XMLID_9_" class="st2" x1="278.9" y1="117" x2="274.1" y2="106.3"/>
			<path id="XMLID_8_" class="st2" d="M276.6,103.7c0,0-0.4,3.2-4.4,3.6"/>
			<path id="XMLID_7_" class="st2" d="M282.3,117.7c0,0-5.8-2.4-6.5,3.4"/>
		</g>
	</g>
	<g id="XMLID_242_">
		<g id="XMLID_349_">
			<path id="XMLID_352_" class="st5" d="M288.8,56.6h2.4v15.1h-2.6V59.5l-3.6,2.3l-1.2-1.9L288.8,56.6z"/>
			<path id="XMLID_350_" class="st5" d="M301.3,56.6h2.4v15.1h-2.6V59.5l-3.6,2.3l-1.2-1.9L301.3,56.6z"/>
		</g>
		<g id="XMLID_241_">
			<path id="XMLID_6_" class="st4" d="M279.9,81.4c0,0.2,1.4,10.7-7.8,13.9c-8.6,2.9-21.2,6.7-25.4-4.1c-0.3-0.9-0.6-1.8-0.6-2.8
				c0-1.2,0.4-2.3,0.7-3.5c1.5-4.7,2.3-12.9,6.6-15.8c6.5-4.3,18.5-3,23.5,3.1C279.5,75.3,279.4,77.7,279.9,81.4z"/>
			<path id="XMLID_5_" class="st4" d="M256.7,75.5l3.7,3c1.4,7.8,6.1,9.1,6.1,9.1s1.1,1.6,0.4,3.3"/>
		</g>
	</g>
	<g id="XMLID_243_">
		<g id="XMLID_340_">
			<path id="XMLID_344_" class="st7" d="M253.1,29.1h2.4v15.1h-2.6V32l-3.6,2.3l-1.2-1.9L253.1,29.1z"/>
			<path id="XMLID_341_" class="st7" d="M271.5,36.8c0,5.7-2.1,7.6-5.8,7.6c-3.7,0-5.8-1.9-5.8-7.6c0-5.9,2.1-7.9,5.8-7.9
				C269.4,28.8,271.5,30.8,271.5,36.8z M262.5,36.8c0,4.1,1.1,5.4,3.2,5.4c2.1,0,3.1-1.3,3.1-5.4c0-4.4-1-5.7-3.1-5.7
				C263.5,31,262.5,32.3,262.5,36.8z"/>
		</g>
		<g id="XMLID_238_">
			<path id="XMLID_4_" class="st6" d="M251,61c0.8,2.4,1.2,4.8,1.1,7.1c0,1.4-0.2,3-1.3,4c-1.9,1.9-7.1,1.8-9.6,2.6
				c-2.9,0.8-5.8,2.3-8.8,2.8c-2.4,0.4-9.9-3.4-10.1-9.6c-0.2-6.2,4.7-7.1,1-14.6c-3.8-7.8,14.8-5.8,18-4.2
				C246.2,51.5,249.3,55.9,251,61z"/>
			<path id="XMLID_3_" class="st6" d="M241.9,69.1c0,0-8.7-5.9-12.4-11.8"/>
		</g>
	</g>
	<g id="XMLID_245_">
		<g id="XMLID_331_">
			<path id="XMLID_332_" class="st7" d="M204.1,24.9c0,0,2.3,0.3,4.2,0.3c2.4,0,3.6-1.5,3.6-4.4c0,0-2.1,0.8-3.4,0.8
				c-3.3,0-5.2-1.5-5.2-4.7c0-3.1,2.1-5,5.5-5c4,0,5.8,3,5.8,7.8c0,5.9-2.4,7.8-6.3,7.8c-2,0-4.5-0.5-4.5-0.5L204.1,24.9z
				 M211.9,18.8c0-2.6-0.8-4.6-3.1-4.6c-1.8,0-2.8,1.1-2.8,2.8c0,1.7,1,2.5,2.7,2.5C210.1,19.4,211.9,18.8,211.9,18.8z"/>
		</g>
		<g id="XMLID_235_">
			<path id="XMLID_2_" class="st6" d="M223.4,46.3c0,0-1.4-6.5-19.2-9.9c-17.8-3.4-18,1.9-18.4,3.6c-0.4,1.7,0.2,2.2,4.4,6.2
				c4.2,4-0.5,13.5,1.6,16.5c2.1,3,15.6,6.3,16.7,5s6.5-15.6,8.3-15.5C218.6,52.4,225.8,49.5,223.4,46.3z"/>
			<path id="XMLID_1_" class="st6" d="M211.6,47.9c0,0-3.7-3.1-14-3.7"/>
		</g>
	</g>
</g>
<text id="XMLID_307_" transform="matrix(1 0 0 1 142.8369 277.5012)"><tspan x="0" y="0" class="st8 st9 st10">CLIQUE PARA </tspan><tspan x="-33.9" y="14.9" class="st8 st9 st10">SELECIONAR OS DENTES</tspan></text>
</svg>
