<svg version="1.1" id="Layer_1" xmlns="http://www.w3.org/2000/svg" xmlns:xlink="http://www.w3.org/1999/xlink" x="0px" y="0px"
	 viewBox="-449 122.9 380.6 556.1" style="enable-background:new -449 122.9 380.6 556.1;" xml:space="preserve">
<style type="text/css">
	.st0{fill:#FFFFFF;}
	.st1{fill:none;stroke:#C4C4C4;stroke-width:2;stroke-miterlimit:10;}
	.numberRef{fill:#C4C4C4;}
	.st3{font-family:'Arial-BoldMT';}
	.st4{font-size:12.4503px;}
</style>
<g id="XMLID_234_">
	<g class="teeth" id="t17">
		<path class="st0" d="M-132.2,413l-12.3,1.2l-11,6.1l0.4,12l-1,10.9l4.7,6.7l12.9,2.1l10.4-3l14.3-7.4l8.6-5l12.1-3.4
			c0,0,4.6-7,4.9-8.2s0-8.7,0-8.7l-7.6-2.9h-17.9l-9.2,1.8L-132.2,413z"/>
		<g id="XMLID_488_">
			<path id="XMLID_158_" class="st1" d="M-155.1,432.3c0.1-2.9-0.9-5.7,0-8.8c1.2-4.4,4.6-7.1,8.3-8.5c5.8-2.2,13.2-3.4,18.5,0.7
				c5.7,4.4,5.7,14.9,4.9,21.8c-0.6,5.2-2.9,11.5-7.6,13.5c-3.9,1.7-7.8,1-11.8,0.5c-1.7-0.2-8.5-0.5-11-3.2
				c-3.3-3.6-1.8-10.6-1.2-15.1C-155.1,432.9-155.1,432.6-155.1,432.3z"/>
			<path id="XMLID_157_" class="st1" d="M-143.5,420.3c0,0,1,2.2,4.7,0.9"/>
			<path id="XMLID_156_" class="st1" d="M-145.5,445.3c0,0,1.2-1.8,5.1-0.8"/>
			<path id="XMLID_155_" class="st1" d="M-141.1,421.6c0,0-1.7,5.4-1.4,10.7c0.3,5.3-0.6,11.9-0.6,11.9"/>
			<path id="XMLID_154_" class="st1" d="M-149.3,432.1c0,0,4.4-1.3,6.9,0.3c2.5,1.6,10.3,0.1,10.3,0.1"/>
			<path id="XMLID_153_" class="st1" d="M-127.6,425.1c0,0-1.9,6.7-0.5,13.3"/>
			<path id="XMLID_152_" class="st1" d="M-129.8,441.6c0,0-4.8,0.5-4.9,5.5"/>
			<path id="XMLID_151_" class="st1" d="M-152.7,447c0,0,1.8-0.6,2.3-7.6"/>
		</g>
		<g id="XMLID_474_">
			<path id="XMLID_477_" class="numberRef" d="M-108.4,418h2.4v15.1h-2.6v-12.2l-3.6,2.3l-1.2-1.9L-108.4,418z"/>
			<path id="XMLID_475_" class="numberRef" d="M-101.3,418h9.7v3l-5.7,12.3l-2.4-0.7l5.5-11.7v-0.7h-7.1V418z"/>
		</g>
	</g>
	<g class="teeth" id="t32">
		<polygon class="st0" points="-372.8,419.2 -382.2,413.9 -392.9,413.5 -397.4,415.7 -411.6,417.7 -427,415.3 -435.8,417.7
			-438.2,431.6 -432.5,436.2 -413.3,436.2 -407.5,437.7 -401.7,443.2 -395.8,450.4 -386.6,451.9 -374.9,450.1 -371,447.1
			-369.2,443.2 -370.6,432.3 -371.3,421.6 		"/>
		<path id="XMLID_199_" class="st1" d="M-370.6,432.3c-0.1-2.9,0.9-5.7,0-8.8c-1.2-4.4-4.6-7.1-8.3-8.5c-5.8-2.2-13.2-3.4-18.5,0.7
			c-5.7,4.4-5.7,14.9-4.9,21.8c0.6,5.2,2.9,11.5,7.6,13.5c3.9,1.7,7.8,1,11.8,0.5c1.7-0.2,8.5-0.5,11-3.2c3.3-3.6,1.8-10.6,1.2-15.1
			C-370.5,432.9-370.6,432.6-370.6,432.3z"/>
		<g id="XMLID_537_">
			<path id="XMLID_198_" class="st1" d="M-382.2,420.3c0,0-1,2.2-4.7,0.9"/>
			<path id="XMLID_197_" class="st1" d="M-380.1,445.3c0,0-1.2-1.8-5.1-0.8"/>
			<path id="XMLID_196_" class="st1" d="M-384.5,421.6c0,0,1.7,5.4,1.4,10.7c-0.3,5.3,0.6,11.9,0.6,11.9"/>
			<path id="XMLID_195_" class="st1" d="M-376.3,432.1c0,0-4.4-1.3-6.9,0.3c-2.5,1.6-10.3,0.1-10.3,0.1"/>
			<path id="XMLID_194_" class="st1" d="M-398.1,425.1c0,0,1.9,6.7,0.5,13.3"/>
			<path id="XMLID_193_" class="st1" d="M-395.8,441.6c0,0,4.8,0.5,4.9,5.5"/>
			<path id="XMLID_192_" class="st1" d="M-373,447c0,0-1.8-0.6-2.3-7.6"/>
		</g>
		<g id="XMLID_469_">
			<path id="XMLID_472_" class="numberRef" d="M-434,418.5c0,0,2.2-0.7,4.5-0.7c3.9,0,5.2,1.3,5.2,4c0,2-1.2,2.9-2,3.4
				c1.4,0.6,2.3,1.2,2.3,3.4c0,3.1-1.5,4.7-5.1,4.7c-2.4,0-5-0.7-5-0.7l0.2-2c0,0,2.6,0.5,4.5,0.5s2.8-0.8,2.8-2.4
				c0-1.5-1.1-2.2-2.6-2.3h-3.1v-2.1h3.1c1.1,0,2.3-1,2.3-2.4s-0.8-2-2.7-2s-4.1,0.4-4.1,0.4L-434,418.5z"/>
			<path id="XMLID_470_" class="numberRef" d="M-421.5,433.1v-2.2l3.8-3.8c2-2,3.1-3.2,3.1-4.8c0-1.7-0.9-2.3-2.9-2.3
				c-1.6,0-3.8,0.4-3.8,0.4l-0.2-2c0,0,2.3-0.7,4.6-0.7c3.4,0,5,1.4,5,4.2c0,2.3-1,3.6-3.4,5.8l-3.3,3.1h7v2.2L-421.5,433.1
				L-421.5,433.1z"/>
		</g>
	</g>
	<g class="teeth" id="t18">
		<path class="st0" d="M-134.7,454.4l-12.1,1l-5.9,3.5l-2.8,6.9l0.4,8.9l1.1,10.6l2.6,4.7l11,1.9l10.6-1.8l5.8-4.7l15.9-7.9
			l19.9-1.5v-8c0,0-4-11.8-4.9-11.5s-12.9-0.8-12.9-0.8l-18.9,2L-134.7,454.4z"/>
		<g id="XMLID_497_">
			<path id="XMLID_165_" class="st1" d="M-155.1,473.1c0-0.3,0-0.6-0.1-0.9c-0.5-5.2-0.8-11.1,3.9-14.5c6.5-4.7,21.5-6,26.3,3.4
				c4.9,9.3,4.8,22.4-1.8,27.3c-6.6,4.9-21.8,3.8-24.6,1.6C-156.7,485.7-154.9,479-155.1,473.1z"/>
			<path id="XMLID_164_" class="st1" d="M-150,473.3c0,0,6.4,1.3,9.5,0.5s9.1-0.2,9.1-0.2"/>
			<path id="XMLID_163_" class="st1" d="M-144.5,462.8c0,0,4,0.1,3.8,4c-0.1,3.8,0.3,7,0.3,7s0.1,4.3-0.4,6.1
				c-0.5,1.7,0.3,5.4,0.3,5.4"/>
			<path id="XMLID_162_" class="st1" d="M-148.2,480.1c0,0,1.6-0.3,0.1,3.9"/>
			<path id="XMLID_161_" class="st1" d="M-129.1,465.7c0,0-1.2,4.6-0.2,8.5c1,4-2.3,9.1-2.3,9.1"/>
			<path id="XMLID_160_" class="st1" d="M-150.4,462.6c0,0,3.1-4.5,10.2-2.6"/>
			<path id="XMLID_159_" class="st1" d="M-145.1,489c0,0,4.7-1.5,7.1-0.3"/>
		</g>
		<g id="XMLID_462_">
			<path id="XMLID_467_" class="numberRef" d="M-110.9,459.4h2.4v15.1h-2.6v-12.2l-3.6,2.3l-1.2-1.9L-110.9,459.4z"/>
			<path id="XMLID_463_" class="numberRef" d="M-93.3,463.2c0,1.9-0.5,2.6-2.1,3.5c1.4,0.9,2.3,1.7,2.3,3.7c0,3.2-2.6,4.3-5.9,4.3
				c-3.2,0-5.8-0.9-5.8-4.1c0-2.2,0.9-3,2.2-4c-1.4-0.9-2-1.8-2-3.5c0-2.6,2.2-4,5.5-4C-95.6,459.2-93.3,460.6-93.3,463.2z
				 M-95.9,470.1c0-1.2-0.8-1.8-2-2.2h-2.2c-1.2,0.4-1.9,1.1-1.9,2.2c0,1.7,1.2,2.4,3,2.4C-97.1,472.5-95.9,471.8-95.9,470.1z
				 M-101.7,463.6c0,1,0.6,1.6,1.6,2.2h2.2c1.1-0.5,1.7-1.1,1.7-2.2c0-1.4-1-2.1-2.8-2.1C-100.7,461.5-101.7,462.1-101.7,463.6z"/>
		</g>
	</g>
	<g class="teeth" id="t31">
		<path class="st0" d="M-370,459.2l-12.5-5.1l-8.4,1l-4.9,2.9l-10,1.5l-13.9-2.7h-8l-4.5,2.6l-1.9,14.7c0,0,4.9,2.8,7.4,2.8
			s12.6,2,13.5,1.8c0.8-0.2,11.8,1.4,11.8,1.4l3.9,7.1l7.8,3.8h13.2l6.8-3.1l2.2-7.9l-0.4-7L-370,459.2z"/>
		<g id="XMLID_546_">
			<path id="XMLID_206_" class="st1" d="M-368,473.1c0-0.3,0-0.6,0.1-0.9c0.5-5.2,0.8-11.1-3.9-14.5c-6.5-4.7-21.5-6-26.3,3.4
				c-4.9,9.3-4.8,22.4,1.8,27.3c6.6,4.9,21.8,3.8,24.6,1.6C-366.5,485.7-368.3,479-368,473.1z"/>
			<path id="XMLID_205_" class="st1" d="M-373.2,473.3c0,0-6.4,1.3-9.5,0.5c-3.1-0.8-9.1-0.2-9.1-0.2"/>
			<path id="XMLID_204_" class="st1" d="M-378.7,462.8c0,0-4,0.1-3.8,4c0.1,3.8-0.3,7-0.3,7s-0.1,4.3,0.4,6.1
				c0.5,1.7-0.3,5.4-0.3,5.4"/>
			<path id="XMLID_203_" class="st1" d="M-374.9,480.1c0,0-1.6-0.3-0.1,3.9"/>
			<path id="XMLID_202_" class="st1" d="M-394.1,465.7c0,0,1.2,4.6,0.2,8.5c-1,4,2.3,9.1,2.3,9.1"/>
			<path id="XMLID_201_" class="st1" d="M-372.8,462.6c0,0-3.1-4.5-10.2-2.6"/>
			<path id="XMLID_200_" class="st1" d="M-378.1,489c0,0-4.7-1.5-7.1-0.3"/>
		</g>
		<g id="XMLID_457_">
			<path id="XMLID_460_" class="numberRef" d="M-429.7,459.9c0,0,2.2-0.7,4.5-0.7c3.9,0,5.2,1.3,5.2,4c0,2-1.2,2.9-2,3.4
				c1.4,0.6,2.3,1.2,2.3,3.4c0,3.1-1.5,4.7-5.1,4.7c-2.4,0-5-0.7-5-0.7l0.2-2c0,0,2.6,0.5,4.5,0.5s2.8-0.8,2.8-2.4
				c0-1.5-1.1-2.2-2.6-2.3h-3.1v-2.1h3c1.1,0,2.3-1,2.3-2.4s-0.8-2-2.7-2s-4.1,0.4-4.1,0.4L-429.7,459.9z"/>
			<path id="XMLID_137_" class="numberRef" d="M-412.1,459.4h2.4v15.1h-2.6v-12.2l-3.6,2.3l-1.2-1.9L-412.1,459.4z"/>
		</g>
	</g>
	<g class="teeth" id="t19">
		<path class="st0" d="M-123,499.2c0,0,21.5,1.2,21.7,1.5c0.2,0.3,4.9,12.4,4.9,12.4l-7.3,10.1l-12.2,1.7l-12.2,5.6l-16.4,7.7
			l-9.5-1.9l-6.8-5.3l-8-4.4l-0.7-5.1l4.8-11l3.9-13.8l7.3-3h11.9l4.3,1.4L-123,499.2z"/>
		<g id="XMLID_505_">
			<path id="XMLID_174_" class="st1" d="M-162.2,501.2c0,0,1.2-8.2,13.9-7.2c0,0,19.6-3.6,14.8,13.5c0,0,8.7,7.5-3.7,20.7
				c0,0-3.6,13.3-12.6,9.9c-8.9-3.3-8.9-6.6-8.9-6.6s-11.4-2.1-10.9-8.8c0.4-6.6,3.3-7.5,4.9-12.2
				C-163.1,505.9-162.2,501.2-162.2,501.2z"/>
			<path id="XMLID_173_" class="st1" d="M-151.4,500.7c0,0-3.5-0.1-6.2,3.2"/>
			<path id="XMLID_172_" class="st1" d="M-165.9,519.8c0,0-1.1,4.3,3.2,6.8"/>
			<path id="XMLID_171_" class="st1" d="M-142.8,530.5c0,0-3.6,4.3-10.4,1.2"/>
			<path id="XMLID_170_" class="st1" d="M-137.2,503.8c0,0-1.5-2.7-6,1.3"/>
			<path id="XMLID_169_" class="st1" d="M-147.4,502.9c0,0,1.6,7-0.6,9.8s-1.2,7.4-2.8,9.8c-1.6,2.4-5.3,5.9-5.3,5.9"/>
			<path id="XMLID_168_" class="st1" d="M-138.7,508.2c0,0-4.5,2.7-7.9,2"/>
			<path id="XMLID_167_" class="st1" d="M-160.9,513.2c0,0,4.7,0.4,8.8,3.7c4.1,3.3,10.8,4.6,10.8,4.6"/>
			<path id="XMLID_166_" class="st1" d="M-133.4,514.7c0,0,0.2,3.9-3.1,6.1"/>
		</g>
		<g id="XMLID_451_">
			<path id="XMLID_455_" class="numberRef" d="M-120,505.8h2.4v15.1h-2.6v-12.2l-3.6,2.3l-1.2-1.9L-120,505.8z"/>
			<path id="XMLID_452_" class="numberRef" d="M-113,518.6c0,0,2.3,0.3,4.2,0.3c2.4,0,3.6-1.5,3.6-4.4c0,0-2.1,0.8-3.4,0.8
				c-3.3,0-5.2-1.5-5.2-4.7c0-3.1,2.1-5,5.5-5c4,0,5.8,3,5.8,7.8c0,5.9-2.4,7.8-6.3,7.8c-2,0-4.5-0.5-4.5-0.5L-113,518.6z
				 M-105.2,512.4c0-2.6-0.8-4.6-3.1-4.6c-1.8,0-2.8,1.1-2.8,2.8c0,1.7,1,2.5,2.7,2.5C-107,513.1-105.2,512.4-105.2,512.4z"/>
		</g>
	</g>
	<g class="teeth" id="t30">
		<path class="st0" d="M-364.1,496.1l-13.7-3.3l-8,3.1l-4.1,4.5l-9.5,4l-14.5-0.2l-8,1.8l-3.8,4.1l2.1,17.9c0,0,5.6,2.3,8,1.8
			s13.1-0.4,13.8-0.9s12-0.9,12-0.9l5.8,7.6l8.7,2.8l13.1-2.9l5.9-5.2l0.1-9.9l-2.2-8.3L-364.1,496.1z"/>
		<g id="XMLID_554_">
			<path id="XMLID_215_" class="st1" d="M-361,501.2c0,0-1.2-8.2-13.9-7.2c0,0-19.6-3.6-14.8,13.5c0,0-8.7,7.5,3.7,20.7
				c0,0,3.6,13.3,12.6,9.9c8.9-3.3,8.9-6.6,8.9-6.6s11.4-2.1,10.9-8.8c-0.4-6.6-3.3-7.5-4.9-12.2C-360.1,505.9-361,501.2-361,501.2z
				"/>
			<path id="XMLID_214_" class="st1" d="M-371.8,500.7c0,0,3.5-0.1,6.2,3.2"/>
			<path id="XMLID_213_" class="st1" d="M-357.3,519.8c0,0,1.1,4.3-3.2,6.8"/>
			<path id="XMLID_212_" class="st1" d="M-380.4,530.5c0,0,3.6,4.3,10.4,1.2"/>
			<path id="XMLID_211_" class="st1" d="M-386,503.8c0,0,1.5-2.7,6,1.3"/>
			<path id="XMLID_210_" class="st1" d="M-375.8,502.9c0,0-1.6,7,0.6,9.8c2.2,2.8,1.2,7.4,2.8,9.8s5.3,5.9,5.3,5.9"/>
			<path id="XMLID_209_" class="st1" d="M-384.5,508.2c0,0,4.5,2.7,7.9,2"/>
			<path id="XMLID_208_" class="st1" d="M-362.2,513.2c0,0-4.7,0.4-8.8,3.7c-4.1,3.3-10.8,4.6-10.8,4.6"/>
			<path id="XMLID_207_" class="st1" d="M-389.7,514.7c0,0-0.2,3.9,3.1,6.1"/>
		</g>
		<g id="XMLID_445_">
			<path id="XMLID_449_" class="numberRef" d="M-425,506.3c0,0,2.2-0.7,4.5-0.7c3.9,0,5.2,1.3,5.2,4c0,2-1.2,2.9-2,3.4
				c1.4,0.6,2.3,1.2,2.3,3.4c0,3.1-1.5,4.7-5.1,4.7c-2.4,0-5-0.7-5-0.7l0.2-2c0,0,2.6,0.5,4.5,0.5s2.8-0.8,2.8-2.4
				c0-1.5-1.1-2.2-2.6-2.3h-3.1v-2.1h3.1c1.1,0,2.3-1,2.3-2.4s-0.8-2-2.7-2s-4.1,0.4-4.1,0.4L-425,506.3z"/>
			<path id="XMLID_446_" class="numberRef" d="M-401.7,513.5c0,5.7-2.1,7.6-5.8,7.6s-5.8-1.9-5.8-7.6c0-5.9,2.1-7.9,5.8-7.9
				S-401.7,507.6-401.7,513.5z M-410.7,513.5c0,4.1,1.1,5.4,3.2,5.4s3.1-1.3,3.1-5.4c0-4.4-1-5.7-3.1-5.7
				C-409.7,507.8-410.7,509-410.7,513.5z"/>
		</g>
	</g>
	<g class="teeth" id="t20">
		<polygon class="st0" points="-156.1,537.4 -172.1,532.4 -181.5,538.2 -184.2,549.4 -180.3,558.5 -167.8,569.2 -159.8,570.5
			-136.5,569.2 -113.8,567.4 -112.2,559.9 -113.8,547.8 -125,544.2 -144.1,545.7 -151.1,542.5 		"/>
		<g id="XMLID_515_">
			<path id="XMLID_180_" class="st1" d="M-149.4,563.2c-1.6,2.6-3.8,4.8-6.3,6.2c-8.8,4.9-16.8-3.2-23.2-9.3
				c-5.4-5.2-7.2-15.3-2.6-21.9c4.2-5.9,11.9-7.4,17.9-4.1c5.9,3.3,13.8,7,16.2,14.6C-145.9,553.7-146.9,559-149.4,563.2z"/>
			<path id="XMLID_179_" class="st1" d="M-170.6,541.5c0,0-4.8,3.9-6.1,8.3"/>
			<path id="XMLID_178_" class="st1" d="M-167,540.5c0,0,0.8,3.4,5.2,5.2"/>
			<path id="XMLID_177_" class="st1" d="M-177.4,554.3c0.9,0.8,7,3.7,10.2,7.3"/>
			<path id="XMLID_176_" class="st1" d="M-164.3,544.2c0,0-5.1,6.7-7.8,13.3"/>
			<path id="XMLID_175_" class="st1" d="M-153,547.8c-0.5,0.4-1.4,7.1-0.7,9.7"/>
		</g>
		<g id="XMLID_439_">
			<path id="XMLID_443_" class="numberRef" d="M-139.2,564.8v-2.2l3.8-3.8c2-2,3.1-3.2,3.1-4.8c0-1.7-0.9-2.3-2.9-2.3
				c-1.6,0-3.8,0.4-3.8,0.4l-0.2-2c0,0,2.3-0.7,4.6-0.7c3.4,0,5,1.4,5,4.2c0,2.3-1,3.6-3.4,5.8l-3.3,3.1h7v2.2L-139.2,564.8
				L-139.2,564.8z"/>
			<path id="XMLID_440_" class="numberRef" d="M-115.9,557.4c0,5.7-2.1,7.6-5.8,7.6c-3.7,0-5.8-1.9-5.8-7.6c0-5.9,2.1-7.9,5.8-7.9
				S-115.9,551.5-115.9,557.4z M-124.9,557.4c0,4.1,1.1,5.4,3.2,5.4s3.1-1.3,3.1-5.4c0-4.4-1-5.7-3.1-5.7
				C-123.9,551.7-124.9,552.9-124.9,557.4z"/>
		</g>
	</g>
	<g class="teeth" id="t29">
		<path class="st0" d="M-341.7,538.2l-7.8-5.4l-10.1,1.3l-11,7.4l-4.6,5.6c0,0-8.5,0.6-9.3,0.7c-0.8,0.1-25.2-2.1-25.2-2.1
			l-1.9,12.2l2.9,12.5l16.2-2.8l11.3-0.2l10.7-1l4.9,3.9l6.7,0.6l7.6-4.5l9.6-8.5l2.7-10.1L-341.7,538.2z"/>
		<g id="XMLID_564_">
			<path id="XMLID_221_" class="st1" d="M-373.8,563.2c1.6,2.6,3.8,4.8,6.3,6.2c8.8,4.9,16.8-3.2,23.2-9.3
				c5.4-5.2,7.2-15.3,2.6-21.9c-4.2-5.9-11.9-7.4-17.9-4.1c-5.9,3.3-13.8,7-16.2,14.6C-377.3,553.7-376.3,559-373.8,563.2z"/>
			<path id="XMLID_220_" class="st1" d="M-352.6,541.5c0,0,4.8,3.9,6.1,8.3"/>
			<path id="XMLID_219_" class="st1" d="M-356.2,540.5c0,0-0.8,3.4-5.2,5.2"/>
			<path id="XMLID_218_" class="st1" d="M-345.8,554.3c-0.9,0.8-7,3.7-10.2,7.3"/>
			<path id="XMLID_217_" class="st1" d="M-358.9,544.2c0,0,5.1,6.7,7.8,13.3"/>
			<path id="XMLID_216_" class="st1" d="M-370.2,547.8c0.5,0.4,1.4,7.1,0.7,9.7"/>
		</g>
		<g id="XMLID_433_">
			<path id="XMLID_437_" class="numberRef" d="M-404.2,564.8v-2.2l3.8-3.8c2-2,3.1-3.2,3.1-4.8c0-1.7-0.9-2.3-2.9-2.3
				c-1.6,0-3.8,0.4-3.8,0.4l-0.2-2c0,0,2.3-0.7,4.6-0.7c3.4,0,5,1.4,5,4.2c0,2.3-1,3.6-3.4,5.8l-3.3,3.1h7v2.2L-404.2,564.8
				L-404.2,564.8z"/>
			<path id="XMLID_434_" class="numberRef" d="M-391.7,562.5c0,0,2.3,0.3,4.2,0.3c2.4,0,3.6-1.5,3.6-4.4c0,0-2.1,0.8-3.4,0.8
				c-3.3,0-5.2-1.5-5.2-4.7c0-3.1,2.1-5,5.5-5c4,0,5.8,3,5.8,7.8c0,5.9-2.4,7.8-6.3,7.8c-2,0-4.5-0.5-4.5-0.5L-391.7,562.5z
				 M-383.9,556.3c0-2.6-0.8-4.6-3.1-4.6c-1.8,0-2.8,1.1-2.8,2.8c0,1.7,1,2.5,2.7,2.5C-385.7,557-383.9,556.3-383.9,556.3z"/>
		</g>
	</g>
	<g class="teeth" id="t21">
		<polygon class="st0" points="-168.2,574.5 -177.4,565 -192.8,561.6 -200.3,569.6 -201.4,577 -193.8,589.3 -186,597 -168.8,601.3
			-150.1,604.2 -136.5,604.2 -134.2,590.2 -141.3,581.2 -157.6,579.1 		"/>
		<g id="XMLID_522_">
			<path id="XMLID_185_" class="st1" d="M-169.5,590.4c-3.9,7-11.7,11.1-19.2,4.7c-3.3-2.8-4.1-4.5-10-12.5c-2.8-3.8-3.6-8.5-1.6-13
				c2.7-6,7-9.3,12.9-7.2c8.7,3.2,10.3,3.3,13.9,5.7C-165.6,573.6-165.6,583.4-169.5,590.4z"/>
			<path id="XMLID_184_" class="st1" d="M-175.7,577c0,0-4.7,0.3-9.2,9.8"/>
			<path id="XMLID_183_" class="st1" d="M-187.7,566.4c0,0-1.1,3.6,5.3,5.5"/>
			<path id="XMLID_182_" class="st1" d="M-196,579.1c0,0,4.1,0.9,6.5,5.5"/>
			<path id="XMLID_181_" class="st1" d="M-186,570.5c0,0-4.6,6.1-6.1,10.7"/>
		</g>
		<g id="XMLID_428_">
			<path id="XMLID_431_" class="numberRef" d="M-160.8,601.1v-2.2l3.8-3.8c2-2,3.1-3.2,3.1-4.8c0-1.7-0.9-2.3-2.9-2.3
				c-1.6,0-3.8,0.4-3.8,0.4l-0.2-2c0,0,2.3-0.7,4.6-0.7c3.4,0,5,1.4,5,4.2c0,2.3-1,3.6-3.4,5.8l-3.3,3.1h7v2.2L-160.8,601.1
				L-160.8,601.1z"/>
			<path id="XMLID_429_" class="numberRef" d="M-142.8,586.1h2.4v15.1h-2.6v-12.3l-3.6,2.3l-1.2-1.9L-142.8,586.1z"/>
		</g>
	</g>
	<g class="teeth" id="t28">
		<path class="st0" d="M-324.7,566.4l-5.8-4.8l-9.3,2.2l-9.9,4.3l-5.3,6.4l-8.2,7.4c0,0-10,1.2-10.9,1.2s-13.9,1.5-13.9,1.5
			l-4.5,8.9l2.8,11.7l16.1,2.5l13.1-6.3l6.9-2.2l7.8-1.5l7.5-0.2l7.2-5.9l8.5-12.5l0.8-6.2L-324.7,566.4z"/>
		<g id="XMLID_571_">
			<path id="XMLID_226_" class="st1" d="M-353.7,590.4c3.9,7,11.7,11.1,19.2,4.7c3.3-2.8,4.1-4.5,10-12.5c2.8-3.8,3.6-8.5,1.6-13
				c-2.7-6-7-9.3-12.9-7.2c-8.7,3.2-10.3,3.3-13.9,5.7C-357.6,573.6-357.6,583.4-353.7,590.4z"/>
			<path id="XMLID_225_" class="st1" d="M-347.5,577c0,0,4.7,0.3,9.2,9.8"/>
			<path id="XMLID_224_" class="st1" d="M-335.5,566.4c0,0,1.1,3.6-5.3,5.5"/>
			<path id="XMLID_223_" class="st1" d="M-327.2,579.1c0,0-4.1,0.9-6.5,5.5"/>
			<path id="XMLID_222_" class="st1" d="M-337.2,570.5c0,0,4.6,6.1,6.1,10.7"/>
		</g>
		<g id="XMLID_421_">
			<path id="XMLID_426_" class="numberRef" d="M-388,601.1v-2.2l3.8-3.8c2-2,3.1-3.2,3.1-4.8c0-1.7-0.9-2.3-2.9-2.3
				c-1.6,0-3.8,0.4-3.8,0.4l-0.2-2c0,0,2.3-0.7,4.6-0.7c3.4,0,5,1.4,5,4.2c0,2.3-1,3.6-3.4,5.8l-3.3,3.1h7v2.2L-388,601.1
				L-388,601.1z"/>
			<path id="XMLID_422_" class="numberRef" d="M-365,589.8c0,1.9-0.5,2.6-2.1,3.5c1.4,0.9,2.3,1.7,2.3,3.7c0,3.2-2.6,4.3-5.9,4.3
				c-3.2,0-5.8-0.9-5.8-4.1c0-2.2,0.9-3,2.2-4c-1.4-0.9-2-1.8-2-3.5c0-2.6,2.2-4,5.5-4C-367.3,585.8-365,587.2-365,589.8z
				 M-367.5,596.7c0-1.2-0.8-1.8-2-2.2h-2.2c-1.2,0.4-1.9,1.1-1.9,2.2c0,1.7,1.2,2.4,3,2.4C-368.7,599.1-367.5,598.4-367.5,596.7z
				 M-373.4,590.2c0,1,0.6,1.6,1.6,2.2h2.2c1.1-0.5,1.7-1.1,1.7-2.2c0-1.4-1-2.1-2.8-2.1C-372.4,588.1-373.4,588.8-373.4,590.2z"/>
		</g>
	</g>
	<g class="teeth" id="t22">
		<polygon class="st0" points="-182.4,602.9 -194.2,593.4 -206.2,588.1 -211.9,588.1 -214.5,591.4 -211.2,601.3 -210.9,608.7
			-205.5,612.3 -195,622.5 -194.2,630.2 -186.2,636.9 -170.6,632.5 -165.4,626.3 -168.2,612.3 		"/>
		<g id="XMLID_528_">
			<path id="XMLID_187_" class="st1" d="M-212.9,589.1c0,0,1.9-3.5,8.7-0.6c6.8,3,12.3,3.3,13,12.4c0.7,9.1-2.3,9.6-6.1,11.1
				c-3.8,1.4-12.2,0.8-13.6-3.3c-1.4-4,0.4-7.3-0.7-8.9C-212.7,598.3-215.2,592.8-212.9,589.1z"/>
			<path id="XMLID_186_" class="st1" d="M-197.8,595.8c0,0,0.1,2.8-2.2,5.4c-2.3,2.7-5.5,4.8-7.6,5.2"/>
		</g>
		<g id="XMLID_416_">
			<path id="XMLID_419_" class="numberRef" d="M-191.2,630.2V628l3.8-3.8c2-2,3.1-3.2,3.1-4.8c0-1.7-0.9-2.3-2.9-2.3
				c-1.6,0-3.8,0.4-3.8,0.4l-0.2-2c0,0,2.3-0.7,4.6-0.7c3.4,0,5,1.4,5,4.2c0,2.3-1,3.6-3.4,5.8l-3.3,3.1h7v2.2L-191.2,630.2
				L-191.2,630.2z"/>
			<path id="XMLID_417_" class="numberRef" d="M-178.7,630.2V628l3.8-3.8c2-2,3.1-3.2,3.1-4.8c0-1.7-0.9-2.3-2.9-2.3
				c-1.6,0-3.8,0.4-3.8,0.4l-0.2-2c0,0,2.3-0.7,4.6-0.7c3.4,0,5,1.4,5,4.2c0,2.3-1,3.6-3.4,5.8l-3.3,3.1h7v2.2L-178.7,630.2
				L-178.7,630.2z"/>
		</g>
	</g>
	<g class="teeth" id="t27">
		<polygon class="st0" points="-322.8,590.2 -328.5,592.4 -330.6,596.8 -342.1,610.2 -355.5,614.8 -355.5,632.5 -342.4,634.2
			-333.2,632.5 -326.7,626.3 -318.5,612.7 -311.9,609 -311,604.2 -309.8,597.3 -308.8,590.2 -313.6,586.8 		"/>
		<g id="XMLID_577_">
			<path id="XMLID_228_" class="st1" d="M-310.3,589.1c0,0-1.9-3.5-8.7-0.6c-6.8,3-12.3,3.3-13,12.4s2.3,9.6,6.1,11.1
				c3.8,1.4,12.2,0.8,13.6-3.3c1.4-4-0.4-7.3,0.7-8.9C-310.5,598.3-307.9,592.8-310.3,589.1z"/>
			<path id="XMLID_227_" class="st1" d="M-325.4,595.8c0,0-0.1,2.8,2.2,5.4c2.3,2.7,5.5,4.8,7.6,5.2"/>
		</g>
		<g id="XMLID_411_">
			<path id="XMLID_414_" class="numberRef" d="M-352.5,630.2V628l3.8-3.8c2-2,3.1-3.2,3.1-4.8c0-1.7-0.9-2.3-2.9-2.3
				c-1.6,0-3.8,0.4-3.8,0.4l-0.2-2c0,0,2.3-0.7,4.6-0.7c3.4,0,5,1.4,5,4.2c0,2.3-1,3.6-3.4,5.8l-3.3,3.1h7v2.2L-352.5,630.2
				L-352.5,630.2z"/>
			<path id="XMLID_412_" class="numberRef" d="M-339.8,615.1h9.7v3l-5.7,12.3l-2.4-0.7l5.5-11.7v-0.7h-7.1V615.1z"/>
		</g>
	</g>
	<g class="teeth" id="t23">
		<polygon class="st0" points="-222.6,602 -229.1,601.3 -232.8,603.8 -234.8,612.7 -236.3,621.5 -234.7,625.6 -229.4,635.8
			-229.4,651.4 -222.6,658.7 -204.4,652.9 -201.4,643.8 -204.4,630.4 -208.5,618.5 -209,614.5 -211.1,610.5 -218.4,606.4 		"/>
		<g id="XMLID_531_">
			<path id="XMLID_189_" class="st1" d="M-220.5,626.2c-1.4,0.3-3.1,0-4.8-0.7c-0.8-0.3-6.1,0.3-9.4,0.1c-3.3-0.3-1.9-4.3-0.2-6.8
				c1.7-2.4,0.7-5.7,0.4-9.5c-0.7-7.3,8.9-11.4,13.6-5.9c2.5,2.9,4.2,5.8,7.1,6.3c2.9,0.5,6.8,2.2,4.8,4.8c-2.1,2.6-6.2,6-6.5,6.8
				C-216.6,624.1-218.4,625.7-220.5,626.2z"/>
			<path id="XMLID_188_" class="st1" d="M-216.3,612.3c0,0-10.3,6-14.5,6.2"/>
		</g>
		<g id="XMLID_406_">
			<path id="XMLID_409_" class="numberRef" d="M-226.9,651.2V649l3.8-3.8c2-2,3.1-3.2,3.1-4.8c0-1.7-0.9-2.3-2.9-2.3
				c-1.6,0-3.8,0.4-3.8,0.4l-0.2-2c0,0,2.3-0.7,4.6-0.7c3.4,0,5,1.4,5,4.2c0,2.3-1,3.6-3.4,5.8l-3.3,3.1h7v2.2L-226.9,651.2
				L-226.9,651.2z"/>
			<path id="XMLID_407_" class="numberRef" d="M-214.4,636.6c0,0,2.2-0.7,4.5-0.7c3.9,0,5.2,1.3,5.2,4c0,2-1.2,2.9-2,3.4
				c1.4,0.6,2.3,1.2,2.3,3.4c0,3.1-1.5,4.7-5.1,4.7c-2.4,0-5-0.7-5-0.7l0.2-2c0,0,2.6,0.5,4.5,0.5s2.8-0.8,2.8-2.4
				c0-1.5-1.1-2.2-2.6-2.3h-3.1v-2.1h3.1c1.1,0,2.3-1,2.3-2.4s-0.8-2-2.7-2s-4.1,0.4-4.1,0.4L-214.4,636.6z"/>
		</g>
	</g>
	<g class="teeth" id="t26">
		<polygon class="st0" points="-290,604.3 -297.5,600.9 -304.8,606.4 -314.1,611.8 -314.2,614.5 -314.1,626.3 -320.5,635.9
			-321.8,650.9 -317.2,655.4 -301.9,654.4 -296.3,651.4 -292.4,635.9 -290,625.6 -286.5,623 -289.3,615.4 -288.7,607.7 		"/>
		<g id="XMLID_580_">
			<path id="XMLID_230_" class="st1" d="M-302.7,626.2c1.4,0.3,3.1,0,4.8-0.7c0.8-0.3,6.1,0.3,9.4,0.1c3.3-0.3,1.9-4.3,0.2-6.8
				c-1.7-2.4-0.7-5.7-0.4-9.5c0.7-7.3-8.9-11.4-13.6-5.9c-2.5,2.9-4.2,5.8-7.1,6.3c-2.9,0.5-6.8,2.2-4.8,4.8c2.1,2.6,6.2,6,6.5,6.8
				C-306.5,624.1-304.8,625.7-302.7,626.2z"/>
			<path id="XMLID_229_" class="st1" d="M-306.9,612.3c0,0,10.3,6,14.5,6.2"/>
		</g>
		<g id="XMLID_400_">
			<path id="XMLID_404_" class="numberRef" d="M-319,651.2V649l3.7-3.8c1.9-2,3.1-3.2,3.1-4.8c0-1.7-0.9-2.3-2.8-2.3
				c-1.6,0-3.7,0.4-3.7,0.4l-0.2-2c0,0,2.2-0.7,4.4-0.7c3.3,0,4.9,1.4,4.9,4.2c0,2.3-1,3.6-3.3,5.8l-3.2,3.1h6.8v2.2L-319,651.2
				L-319,651.2z"/>
			<path id="XMLID_401_" class="numberRef" d="M-297.1,638.4c0,0-2.2-0.3-4.1-0.3c-2.3,0-3.5,1.6-3.5,4.2c0,0,1.9-0.7,3.3-0.7
				c3.3,0,5.1,1.5,5.1,4.8s-2,5-5.4,5c-3.9,0-5.6-2.9-5.6-7.8c0-5.6,2.4-7.8,6.1-7.8c1.9,0,4.4,0.5,4.4,0.5L-297.1,638.4z
				 M-304.8,644.5c0,2.6,0.8,4.7,3,4.7c1.8,0,2.8-1,2.8-2.8c0-1.7-1-2.6-2.7-2.6C-303.1,643.9-304.8,644.5-304.8,644.5z"/>
		</g>
	</g>
	<g class="teeth" id="t24">
		<polygon class="st0" points="-251,609 -254.7,610.5 -257,618.5 -261.6,625.7 -258,638.9 -261.5,647.9 -260.2,660.2 -242.2,661.3
			-232.8,658.7 -232.8,644.9 -236.7,632.5 -237.3,625.7 -239.6,620.1 -245,613.2 		"/>
		<g id="XMLID_534_">
			<path id="XMLID_191_" class="st1" d="M-248.3,632.3c0,0-3.7,0.8-5.3-0.8s-3.7-1.9-6.8-3.4c-3-1.5,0.1-4.8,1.1-6s2.4-3.2,3.9-7.8
				c0.5-1.7,1.3-3,2.1-3.9c1.4-1.7,3.8-1.9,5.5-0.6c0.9,0.8,1.9,1.9,2.8,3.4c2.4,4.3,4.1,5.9,5.4,6.9c1.2,1,5,3.6,2.3,5.6
				c-2.7,2.1-4.7,2.7-5.9,4.7C-244.5,632.4-248.3,632.3-248.3,632.3z"/>
			<path id="XMLID_190_" class="st1" d="M-244.6,621.5c0,0-5.5,1.4-10.1,1"/>
		</g>
		<g id="XMLID_395_">
			<path id="XMLID_398_" class="numberRef" d="M-258,658.6v-2.2l3.8-3.8c2-2,3.1-3.2,3.1-4.8c0-1.7-0.9-2.3-2.9-2.3
				c-1.6,0-3.8,0.4-3.8,0.4l-0.2-2c0,0,2.3-0.7,4.6-0.7c3.4,0,5,1.4,5,4.2c0,2.3-1,3.6-3.4,5.8l-3.3,3.1h7v2.2L-258,658.6
				L-258,658.6z"/>
			<path id="XMLID_396_" class="numberRef" d="M-239.2,655.9h-6.9V654l4.1-10.4h2.9l-4.3,10.2h4.3v-4.4h2.6v4.4h1.7v2.2h-1.7v2.7h-2.6
				v-2.8H-239.2z"/>
		</g>
	</g>
	<g class="teeth" id="t25">
		<path class="st0" d="M-269.9,610.4l-3.6-1.4l-4.7,4.2l-7.6,8.8v8.2l-4.2,16.3c0,0-0.8,14.4,0,14.7s17.8,0,17.8,0l7.8,0.1l1.5-12.1
			v-11.8l0.2-9.3l1.1-2.7l-4.5-6.9L-269.9,610.4z"/>
		<g id="XMLID_583_">
			<path id="XMLID_232_" class="st1" d="M-274.9,632.3c0,0,3.7,0.8,5.3-0.8c1.6-1.6,3.7-1.9,6.8-3.4c3-1.5-0.1-4.8-1.1-6
				s-2.4-3.2-3.9-7.8c-0.5-1.7-1.3-3-2.1-3.9c-1.4-1.7-3.8-1.9-5.5-0.6c-0.9,0.8-1.9,1.9-2.8,3.4c-2.4,4.3-4.1,5.9-5.4,6.9
				c-1.2,1-5,3.6-2.3,5.6c2.7,2.1,4.7,2.7,5.9,4.7C-278.7,632.4-274.9,632.3-274.9,632.3z"/>
			<path id="XMLID_231_" class="st1" d="M-278.6,621.5c0,0,5.5,1.4,10.1,1"/>
		</g>
		<g id="XMLID_390_">
			<path id="XMLID_393_" class="numberRef" d="M-287.4,658.6v-2.2l3.8-3.8c2-2,3.1-3.2,3.1-4.8c0-1.7-0.9-2.3-2.9-2.3
				c-1.6,0-3.8,0.4-3.8,0.4l-0.2-2c0,0,2.3-0.7,4.6-0.7c3.4,0,5,1.4,5,4.2c0,2.3-1,3.6-3.4,5.8l-3.3,3.1h7v2.2L-287.4,658.6
				L-287.4,658.6z"/>
			<path id="XMLID_391_" class="numberRef" d="M-265.1,643.5v2.2h-7.1l-0.4,4c0,0,1.6-0.7,3.1-0.7c3.1,0,5,1.3,5,4.5
				c0,3.4-1.9,5.3-5.2,5.3c-2.4,0-5.3-0.8-5.3-0.8l0.3-1.9c0,0,2.8,0.5,4.7,0.5c1.8,0,2.9-1,2.9-2.8c0-1.9-1-2.5-2.6-2.5
				c-1.8,0-3.2,0.6-3.2,0.6l-1.6-0.3l0.4-8L-265.1,643.5L-265.1,643.5z"/>
		</g>
	</g>
	<g class="teeth" id="t1">
		<path class="st0" d="M-368.8,371.8l-4.3-12.7l-11.9-9.4l-13.3-1.6l-8.5,2.9l-11.1,3.3l-6.6,3c0,0-5,8.2-4,9.8s4,8,4,8l11.6,3.5
			l9.4,1.8l8.1,6.7l7.7,1.3l7.2-0.3l7.4-3.4l3.9-4.3L-368.8,371.8z"/>
		<g id="XMLID_485_">
			<path id="XMLID_486_" class="numberRef" d="M-419.5,358h2.4v15.1h-2.6v-12.2l-3.6,2.3l-1.2-1.9L-419.5,358z"/>
		</g>
		<g id="XMLID_324_">
			<path id="XMLID_80_" class="st1" d="M-405.5,375.7c1.9,8.7,12.7,14.5,21.4,13.1c14.7-2.4,17.6-10.2,14.2-22.2
				c-3.4-12.1-16.9-18.1-24.5-18.9s-12.3,7.7-10.3,15.4c0.5,1.9-0.4,5.5-0.8,7.4C-405.9,372.3-405.8,374.1-405.5,375.7z"/>
			<path id="XMLID_79_" class="st1" d="M-399.4,369.9c0,0,8.4-0.2,10,0c1.7,0.2,12.3,6.3,12.3,6.3"/>
			<path id="XMLID_78_" class="st1" d="M-392.2,381.1c0,0,3.3-2.2,3.8-3.9c0.5-1.6,0.8-5.6,0.8-5.6s4.3-4,4.4-4.8
				c0.1-0.8-0.9-7.7-0.9-7.7"/>
			<line id="XMLID_77_" class="st1" x1="-388.6" y1="378.6" x2="-385.4" y2="382.1"/>
			<path id="XMLID_76_" class="st1" d="M-398.3,362.4c0,0,2.7-0.5,2.7-5"/>
			<path id="XMLID_75_" class="st1" d="M-374.5,368.7c0,0-2.7-1.9-3.8-6"/>
		</g>
	</g>
	<g class="teeth" id="t2">
		<path class="st0" d="M-373.2,324.2l-11.4-7.7h-8.9l-12.3,1.9c0,0-8-0.8-9.2-0.8s-10.8,2.2-10.8,2.2s-2.8,8.3-2.8,11s2,8.5,2,8.5
			l9.4,3.1l8.4-2.4l7.9,4.7l12.6,4.2c0,0,9.4,2.1,9.8,2.1c0.5,0,7.2-6.4,7.2-6.4l2-12.5L-373.2,324.2z"/>
		<g id="XMLID_387_">
			<path id="XMLID_388_" class="numberRef" d="M-422.8,336.3v-2.2l3.8-3.8c2-2,3.1-3.2,3.1-4.8c0-1.7-0.9-2.3-2.9-2.3
				c-1.6,0-3.8,0.4-3.8,0.4l-0.2-2c0,0,2.3-0.7,4.6-0.7c3.4,0,5,1.4,5,4.2c0,2.3-1,3.6-3.4,5.8l-3.3,3.1h7v2.2h-9.9V336.3z"/>
		</g>
		<g id="XMLID_314_">
			<path id="XMLID_74_" class="st1" d="M-400.1,345.6c2.7,2.3,8.9,2.7,11.8,3.4c3.3,0.8,10.4,3.9,14,0.6c3.6-3.3,6.6-14.5,4.5-20.5
				c-2.2-6-13.9-13.3-17.7-13.8c-3.7-0.4-10.4,0.8-12,6.3s-0.4,12.2-0.4,12.2c-0.5,3.1-3,8-1,11C-400.7,345-400.5,345.3-400.1,345.6
				z"/>
			<path id="XMLID_73_" class="st1" d="M-388.9,344.8c0,0,1.9-0.7,6.2,0.9"/>
			<path id="XMLID_72_" class="st1" d="M-385.8,344.8c0,0-0.2-10.4,8.2-10.7"/>
			<path id="XMLID_71_" class="st1" d="M-395.4,333.5c0,0,9.8,3.6,11.5-8.4"/>
			<path id="XMLID_70_" class="st1" d="M-382.8,336.3c0,0-1.9-0.7-4.3-4.2"/>
			<path id="XMLID_69_" class="st1" d="M-393.5,342.5c0,0-1.5-1-2.6-4.8"/>
			<path id="XMLID_68_" class="st1" d="M-394.4,326.4c0,0,1.1-4.3,5.3-0.9"/>
			<path id="XMLID_67_" class="st1" d="M-380.5,345.8c0,0,1-0.6,2.9-1"/>
			<path id="XMLID_66_" class="st1" d="M-373.9,332.7c0,0-1.4-0.2-2.9-3.6"/>
		</g>
	</g>
	<g class="teeth" id="t3">
		<path class="st0" d="M-362.3,289.2l-5.7-7l-17.4-2.3l-9,2.9l-18.5-4.5h-7.9l-2,15.5l7.8,9c0,0,11.2,0.8,12,0s6.2,2.8,6.2,2.8
			l2.8,5.6l9.4,5.3l9.4,3.6l6.6-0.2l3.5-5.7l1.9-12.4L-362.3,289.2z"/>
		<g id="XMLID_379_">
			<path id="XMLID_380_" class="numberRef" d="M-416.8,281.8c0,0,2.2-0.7,4.5-0.7c3.9,0,5.2,1.3,5.2,4c0,2-1.2,2.9-2,3.4
				c1.4,0.6,2.3,1.2,2.3,3.4c0,3.1-1.5,4.7-5.1,4.7c-2.4,0-5-0.7-5-0.7l0.2-2c0,0,2.6,0.5,4.5,0.5c1.9,0,2.8-0.8,2.8-2.4
				c0-1.5-1.1-2.2-2.6-2.3h-3.1v-2.1h3.1c1.1,0,2.3-1,2.3-2.4s-0.8-2-2.7-2s-4.1,0.4-4.1,0.4L-416.8,281.8z"/>
		</g>
		<g id="XMLID_305_">
			<path id="XMLID_65_" class="st1" d="M-396.8,305.4c0,0,0.6,5.6,6.6,8.2c6,2.6,9.3,5.6,12.1,5.8c2.9,0.2,12.4,3.6,13-5.4
				c0.6-8.9,3.6-20,3.3-22.8c-0.3-2.7-2.6-8.2-10.7-10.2c-8.1-2-15.3-1-16.9-0.3c-1.7,0.6-5.7,5.7-6.4,10.7
				C-396.5,296.4-396.8,305.4-396.8,305.4z"/>
			<path id="XMLID_64_" class="st1" d="M-375.9,314.4c0,0,4.8-1.7,6.1-3.3"/>
			<path id="XMLID_63_" class="st1" d="M-367.2,293.4c0,0-0.8-4.6-3.7-7.1"/>
			<path id="XMLID_62_" class="st1" d="M-392.4,291.1c0,0,1.8-4.1,4.7-5.4"/>
			<path id="XMLID_61_" class="st1" d="M-389.4,308.2c-0.8-2.8-2-5.9-3-6.6"/>
			<path id="XMLID_60_" class="st1" d="M-384.6,311c0,0,6.5-1.6,7.1-7.2c0,0,4.1,0.3,6.1-1.2s5.6-0.8,5.6-0.8"/>
			<path id="XMLID_59_" class="st1" d="M-377.4,303.8c0,0-2.2-7.2-3.6-7.4s-9.9,0.2-9.9,0.2l-1.7,1.5"/>
			<path id="XMLID_58_" class="st1" d="M-382.6,284.6c0.4,0.3,2.8,3.7,2.8,3.7l-0.8,5.4"/>
		</g>
	</g>
	<g class="teeth" id="t4">
		<path class="st0" d="M-348.2,261.4l-3.7-8.5l-16.1-5.8l-13.2-0.9h-14.9l-7.9-4.2h-7.8c0,0-3.1,8.8-3.1,9.7s2.1,7.9,2.1,7.9
			l7.4,3.9l8.7,1.3l6.8,4.6l1.9,1.7l9.1,7.5l13.2,4.1h7.8l6.1-4.5L-348.2,261.4z"/>
		<g id="XMLID_371_">
			<path id="XMLID_372_" class="numberRef" d="M-402.8,256.8h-6.9v-1.9l4.1-10.4h2.9l-4.3,10.2h4.3v-4.4h2.6v4.4h1.7v2.2h-1.7v2.7h-2.6
				L-402.8,256.8L-402.8,256.8z"/>
		</g>
		<g id="XMLID_298_">
			<path id="XMLID_57_" class="st1" d="M-389.7,264.6c0,0-0.4,9.6,9.3,13.5c9.7,3.8,21.1,6.9,24.4,4.5c3.3-2.4,8.1-8.1,7.8-21.2
				c-0.3-13-26-16-30-15S-389.5,252.3-389.7,264.6z"/>
			<path id="XMLID_56_" class="st1" d="M-376.6,269.8c0,0-2.6-8.4,3.6-16.9"/>
			<path id="XMLID_55_" class="st1" d="M-358,275.3c0.5-0.6,3.2-1.7,1.4-11.8"/>
			<line id="XMLID_54_" class="st1" x1="-368.8" y1="272.1" x2="-364.4" y2="257.2"/>
			<path id="XMLID_53_" class="st1" d="M-366.8,252c0,0-0.2,8.1,7.3,5"/>
			<path id="XMLID_52_" class="st1" d="M-373.1,273.2c0,0,6.1-4.1,10.2,3"/>
		</g>
	</g>
	<g class="teeth" id="t5">
		<path class="st0" d="M-343,226.6l-15-12.8h-7.8l-7.3-0.3c0,0-8.2-3.9-9.8-3.6s-9.7,0-9.7,0l-7.4,6.3c0,0-1,8.9,0,10.4
			s10.6,9.6,10.6,9.6l11-1.6l1.3,7.5l9.1,4l9.7,2.5l8.6,1.3l6.7-3.2l4.2-7.1l0.7-5.7L-343,226.6z"/>
		<g id="XMLID_363_">
			<path id="XMLID_364_" class="numberRef" d="M-383.5,213.3v2.2h-7.1l-0.4,4c0,0,1.6-0.7,3.1-0.7c3.1,0,5,1.3,5,4.5
				c0,3.4-1.9,5.3-5.2,5.3c-2.4,0-5.3-0.8-5.3-0.8l0.3-1.9c0,0,2.8,0.5,4.7,0.5c1.8,0,2.9-1,2.9-2.8c0-1.9-1-2.5-2.6-2.5
				c-1.8,0-3.2,0.6-3.2,0.6l-1.6-0.3l0.4-8h9V213.3z"/>
		</g>
		<g id="XMLID_292_">
			<path id="XMLID_51_" class="st1" d="M-370.1,217.6c4.3-4.1,10.1-6.3,15.8-0.8c6.7,6.5,15.8,11.9,16.2,17.1
				c0.4,5.2-2.1,8.6-2.1,8.6s-1.4,4-5.9,6.7s-14.1-1.7-23.3-3.4c-5.7-1.1-9.5-7.1-9-12.3c0.3-3.3,1.8-6.3,3.3-9.2
				C-373.9,222.1-372.2,219.6-370.1,217.6z"/>
			<path id="XMLID_50_" class="st1" d="M-367.2,238.5c0,0,0.3-9.5,7.1-13.7"/>
			<line id="XMLID_49_" class="st1" x1="-356.5" y1="239.9" x2="-351.6" y2="229.2"/>
			<path id="XMLID_48_" class="st1" d="M-354.1,226.6c0,0,0.4,3.2,4.4,3.6"/>
			<path id="XMLID_47_" class="st1" d="M-359.8,240.6c0,0,5.8-2.4,6.5,3.4"/>
		</g>
	</g>
	<g class="teeth" id="t6">
		<path class="st0" d="M-323.8,209.7l-5.4-16l-8.8-4.2l-13.8-2.5l-4.6-6.8l-10.7-4.6l-6.8,3.6c0,0-3.8,9.9-3.1,10.3s1.4,7.4,4.1,8.9
			s10.1,4,10.1,4l4.9,3.7l2.6,7.7l7.2,4.9l11.2,2.3l7.9-0.2l4.9-6.6L-323.8,209.7z"/>
		<g id="XMLID_354_">
			<path id="XMLID_355_" class="numberRef" d="M-361.6,181.8c0,0-2.3-0.3-4.2-0.3c-2.4,0-3.6,1.6-3.6,4.2c0,0,2-0.7,3.4-0.7
				c3.4,0,5.2,1.5,5.2,4.8c0,3.3-2.1,5-5.5,5c-4,0-5.7-2.9-5.7-7.8c0-5.6,2.4-7.8,6.3-7.8c2,0,4.5,0.5,4.5,0.5L-361.6,181.8z
				 M-369.4,187.9c0,2.6,0.8,4.7,3.1,4.7c1.8,0,2.8-1,2.8-2.8c0-1.7-1-2.6-2.8-2.6C-367.8,187.2-369.4,187.9-369.4,187.9z"/>
		</g>
		<g id="XMLID_289_">
			<path id="XMLID_46_" class="st1" d="M-357.4,204.3c0,0.2-1.4,10.7,7.8,13.9c8.6,2.9,21.2,6.7,25.4-4.1c0.3-0.9,0.6-1.8,0.6-2.8
				c0-1.2-0.4-2.3-0.7-3.5c-1.5-4.7-2.3-12.9-6.6-15.8c-6.5-4.3-18.5-3-23.5,3.1C-357,198.2-356.9,200.6-357.4,204.3z"/>
			<path id="XMLID_45_" class="st1" d="M-334.2,198.4l-3.7,3c-1.4,7.8-6.1,9.1-6.1,9.1s-1.1,1.6-0.4,3.3"/>
		</g>
	</g>
	<g class="teeth" id="t7">
		<path class="st0" d="M-299.8,187l-2.2-7.5l1.4-6.5l-4.5-2.2l-3.6-3.5l-7-0.2l-6-7.6l-3.5-11.4l-11-2.3c0,0-5,2.4-5.5,2.3
			s0,12.4,0,12.4l5,8.4l4.8,9.2l2.8,15.5l5.6,3.1l12.7,3.5l6.4-1.8l4.7-5.8V187z"/>
		<g id="XMLID_346_">
			<path id="XMLID_347_" class="numberRef" d="M-338.8,152h9.7v3l-5.7,12.3l-2.4-0.7l5.5-11.7v-0.7h-7.1V152z"/>
		</g>
		<g id="XMLID_286_">
			<path id="XMLID_44_" class="st1" d="M-328.5,183.9c-0.8,2.4-1.2,4.8-1.1,7.1c0,1.4,0.2,3,1.3,4c1.9,1.9,7.1,1.8,9.6,2.6
				c2.9,0.8,5.8,2.3,8.8,2.8c2.4,0.4,9.9-3.4,10.1-9.6c0.2-6.2-4.7-7.1-1-14.6c3.8-7.8-14.8-5.8-18-4.2
				C-323.7,174.4-326.8,178.8-328.5,183.9z"/>
			<path id="XMLID_43_" class="st1" d="M-319.4,192c0,0,8.7-5.9,12.4-11.8"/>
		</g>
	</g>
	<g class="teeth" id="t8">
		<polygon class="st0" points="-292.3,177.5 -296.9,174.5 -301.4,170.8 -295.2,159.5 -298.2,148.1 -295.2,135.7 -292.1,131.9
			-285,131.9 -280.2,137.1 -280.2,143.5 -280.2,150.3 -275.1,154 -268.8,158.2 -265.3,159.5 -263.3,162.9 -267.7,169.1
			-269.3,177.5 -269.3,185.6 -277.2,189.5 -286,190.6 		"/>
		<g id="XMLID_335_">
			<path id="XMLID_336_" class="numberRef" d="M-283.7,138.8c0,1.9-0.5,2.6-2.1,3.5c1.4,0.9,2.3,1.7,2.3,3.7c0,3.2-2.6,4.3-5.9,4.3
				c-3.2,0-5.8-0.9-5.8-4.1c0-2.2,0.9-3,2.2-4c-1.4-0.9-2-1.8-2-3.5c0-2.6,2.2-4,5.5-4C-286,134.8-283.7,136.2-283.7,138.8z
				 M-286.2,145.7c0-1.2-0.8-1.8-2-2.2h-2.2c-1.2,0.4-1.9,1.1-1.9,2.2c0,1.7,1.2,2.4,3,2.4C-287.4,148.1-286.2,147.4-286.2,145.7z
				 M-292.1,139.2c0,1,0.6,1.6,1.6,2.2h2.2c1.1-0.5,1.7-1.1,1.7-2.2c0-1.4-1-2.1-2.8-2.1C-291,137.1-292.1,137.8-292.1,139.2z"/>
		</g>
		<g id="XMLID_283_">
			<path id="XMLID_42_" class="st1" d="M-300.9,169.2c0,0,1.4-6.5,19.2-9.9c17.8-3.4,18,1.9,18.4,3.6c0.4,1.7-0.2,2.2-4.4,6.2
				c-4.2,4,0.5,13.5-1.6,16.5c-2.1,3-15.6,6.3-16.7,5s-6.5-15.6-8.3-15.5C-296.1,175.3-303.3,172.4-300.9,169.2z"/>
			<path id="XMLID_41_" class="st1" d="M-289.1,170.8c0,0,3.7-3.1,14-3.7"/>
		</g>
	</g>
	<g class="teeth" id="t16">
		<path class="st0" d="M-127.6,348.4l-12.8,1.6l-12.2,8l-4.8,12.2l0.7,10.9l7.9,6l14,1.2l7.6-3.7l13.5-6.1h15.3l12.5-7.5
			c0,0-0.8-9-1.2-10s-3.7-7.2-3.7-7.2l-22.7-0.2l-7.3-1L-127.6,348.4z"/>
		<g id="XMLID_479_">
			<path id="XMLID_483_" class="numberRef" d="M-108.4,358h2.4v15.1h-2.6v-12.2l-3.6,2.3l-1.2-1.9L-108.4,358z"/>
			<path id="XMLID_480_" class="numberRef" d="M-91.5,360.2c0,0-2.3-0.3-4.2-0.3c-2.4,0-3.6,1.6-3.6,4.2c0,0,2-0.7,3.4-0.7
				c3.4,0,5.2,1.5,5.2,4.8c0,3.3-2.1,5-5.5,5c-4,0-5.7-2.9-5.7-7.8c0-5.6,2.4-7.8,6.3-7.8c2,0,4.5,0.5,4.5,0.5L-91.5,360.2z
				 M-99.4,366.4c0,2.6,0.8,4.7,3.1,4.7c1.8,0,2.8-1,2.8-2.8c0-1.7-1-2.6-2.8-2.6C-97.7,365.7-99.4,366.4-99.4,366.4z"/>
		</g>
		<g id="XMLID_276_">
			<path id="XMLID_40_" class="st1" d="M-121,375.7c-1.9,8.7-12.7,14.5-21.4,13.1c-14.7-2.4-17.6-10.2-14.2-22.2
				c3.4-12.1,16.9-18.1,24.5-18.9s12.3,7.7,10.3,15.4c-0.5,1.9,0.4,5.5,0.8,7.4C-120.6,372.3-120.7,374.1-121,375.7z"/>
			<path id="XMLID_39_" class="st1" d="M-127.1,369.9c0,0-8.4-0.2-10,0c-1.7,0.2-12.3,6.3-12.3,6.3"/>
			<path id="XMLID_38_" class="st1" d="M-134.3,381.1c0,0-3.3-2.2-3.8-3.9s-0.8-5.6-0.8-5.6s-4.3-4-4.4-4.8
				c-0.1-0.8,0.9-7.7,0.9-7.7"/>
			<line id="XMLID_37_" class="st1" x1="-137.9" y1="378.6" x2="-141.1" y2="382.1"/>
			<path id="XMLID_36_" class="st1" d="M-128.2,362.4c0,0-2.7-0.5-2.7-5"/>
			<path id="XMLID_35_" class="st1" d="M-152,368.7c0,0,2.7-1.9,3.8-6"/>
		</g>
	</g>
	<g class="teeth" id="t15">
		<path class="st0" d="M-139,315.3l-13,7.7l-4.7,6.1l-0.8,11l4.7,7.5l5.3,3.4l12.7-2.7l8.3-2.8c0,0,9.3-6.4,10.5-6.2
			s12.8,0.6,14.6,0.7s10.6-2.4,10.6-2.4v-13.5l-0.9-7.8l-15.4-1.2l-11.3,2.7l-16-2.3L-139,315.3z"/>
		<g id="XMLID_382_">
			<path id="XMLID_385_" class="numberRef" d="M-110.9,321.2h2.4v15.1h-2.6v-12.2l-3.6,2.3l-1.2-1.9L-110.9,321.2z"/>
			<path id="XMLID_383_" class="numberRef" d="M-94.1,321.2v2.2h-7.1l-0.4,4c0,0,1.6-0.7,3.1-0.7c3.1,0,5,1.3,5,4.5c0,3.4-1.9,5.3-5.2,5.3
				c-2.4,0-5.3-0.8-5.3-0.8l0.3-1.9c0,0,2.8,0.5,4.7,0.5c1.8,0,2.9-1,2.9-2.8c0-1.9-1-2.5-2.6-2.5c-1.8,0-3.2,0.6-3.2,0.6l-1.6-0.3
				l0.4-8h9V321.2z"/>
		</g>
		<g id="XMLID_266_">
			<path id="XMLID_34_" class="st1" d="M-126.4,345.6c-2.7,2.3-8.9,2.7-11.8,3.4c-3.3,0.8-10.4,3.9-14,0.6
				c-3.6-3.3-6.6-14.5-4.5-20.5c2.2-6,13.9-13.3,17.7-13.8c3.7-0.4,10.4,0.8,12,6.3s0.4,12.2,0.4,12.2c0.5,3.1,3,8,1,11
				C-125.8,345-126.1,345.3-126.4,345.6z"/>
			<path id="XMLID_33_" class="st1" d="M-137.6,344.8c0,0-1.9-0.7-6.2,0.9"/>
			<path id="XMLID_32_" class="st1" d="M-140.7,344.8c0,0,0.2-10.4-8.2-10.7"/>
			<path id="XMLID_31_" class="st1" d="M-131.1,333.5c0,0-9.8,3.6-11.5-8.4"/>
			<path id="XMLID_30_" class="st1" d="M-143.7,336.3c0,0,1.9-0.7,4.3-4.2"/>
			<path id="XMLID_29_" class="st1" d="M-133,342.5c0,0,1.5-1,2.6-4.8"/>
			<path id="XMLID_28_" class="st1" d="M-132.1,326.4c0,0-1.1-4.3-5.3-0.9"/>
			<path id="XMLID_27_" class="st1" d="M-146,345.8c0,0-1-0.6-2.8-1"/>
			<path id="XMLID_26_" class="st1" d="M-152.6,332.7c0,0,1.4-0.2,2.9-3.6"/>
		</g>
	</g>
	<g class="teeth" id="t14">
		<path class="st0" d="M-149.7,279.8l-13.1,6.5l-1.9,10l2.6,13.1l2.2,8.9l6.2,1.9l8.9-2.4l8.5-4.2l6.6-8.2l22.5-5.4h16.5l-2.8-16.5
			l-5.9-5.8l-19.9-1.5c0,0-7.9,5.5-8.9,5.1s-8.9-0.6-8.9-0.6L-149.7,279.8z"/>
		<g id="XMLID_374_">
			<path id="XMLID_377_" class="numberRef" d="M-116,281.3h2.4v15.1h-2.6v-12.2l-3.6,2.3l-1.2-1.9L-116,281.3z"/>
			<path id="XMLID_375_" class="numberRef" d="M-102.7,293.7h-6.9v-1.9l4.1-10.4h2.9l-4.3,10.2h4.3v-4.4h2.6v4.4h1.7v2.2h-1.7v2.7h-2.6
				v-2.8H-102.7z"/>
		</g>
		<g id="XMLID_257_">
			<path id="XMLID_25_" class="st1" d="M-129.7,305.4c0,0-0.6,5.6-6.6,8.2c-6,2.6-9.3,5.6-12.1,5.8c-2.9,0.2-12.4,3.6-13-5.4
				c-0.6-8.9-3.6-20-3.3-22.8c0.3-2.7,2.6-8.2,10.7-10.2s15.3-1,16.9-0.3c1.7,0.6,5.7,5.7,6.4,10.7
				C-130,296.4-129.7,305.4-129.7,305.4z"/>
			<path id="XMLID_24_" class="st1" d="M-150.6,314.4c0,0-4.8-1.7-6.1-3.3"/>
			<path id="XMLID_23_" class="st1" d="M-159.3,293.4c0,0,0.8-4.6,3.7-7.1"/>
			<path id="XMLID_22_" class="st1" d="M-134.1,291.1c0,0-1.8-4.1-4.7-5.4"/>
			<path id="XMLID_21_" class="st1" d="M-137.1,308.2c0.8-2.8,2-5.9,3-6.6"/>
			<path id="XMLID_20_" class="st1" d="M-142,311c0,0-6.5-1.6-7.1-7.2c0,0-4.1,0.3-6.1-1.2s-5.6-0.8-5.6-0.8"/>
			<path id="XMLID_19_" class="st1" d="M-149.1,303.8c0,0,2.2-7.2,3.6-7.4s9.9,0.2,9.9,0.2l1.7,1.5"/>
			<path id="XMLID_18_" class="st1" d="M-143.9,284.6c-0.4,0.3-2.8,3.7-2.8,3.7l0.8,5.4"/>
		</g>
	</g>
	<g class="teeth" id="t13">
		<path class="st0" d="M-156.7,246.2l-18.2,8l-3.4,10.6l3.4,12.8l7.4,5.8l17.8-4l12.3-9.6c0,0,17.8-5,18.1-5s17.4-5.3,17.4-5.3
			s0.3-14.7,0-15.5c-0.3-0.9-8.6-4.9-9.3-5.5c-0.8-0.6-17,3.6-17,3.6l-5.9,2.3L-156.7,246.2z"/>
		<g id="XMLID_366_">
			<path id="XMLID_369_" class="numberRef" d="M-125.1,244.4h2.4v15.1h-2.6v-12.2l-3.6,2.3l-1.2-1.9L-125.1,244.4z"/>
			<path id="XMLID_367_" class="numberRef" d="M-118.2,244.9c0,0,2.2-0.7,4.5-0.7c3.9,0,5.2,1.3,5.2,4c0,2-1.2,2.9-2,3.4
				c1.4,0.6,2.3,1.2,2.3,3.4c0,3.1-1.5,4.7-5.1,4.7c-2.4,0-5-0.7-5-0.7l0.2-2c0,0,2.6,0.5,4.5,0.5s2.8-0.8,2.8-2.4
				c0-1.5-1.1-2.2-2.6-2.3h-3.1v-2.1h3.1c1.1,0,2.3-1,2.3-2.3c0-1.4-0.8-2-2.7-2c-1.9,0-4.1,0.4-4.1,0.4L-118.2,244.9z"/>
		</g>
		<g id="XMLID_250_">
			<path id="XMLID_17_" class="st1" d="M-136.8,264.6c0,0,0.4,9.6-9.3,13.5c-9.7,3.8-21.1,6.9-24.4,4.5c-3.3-2.4-8.1-8.1-7.8-21.2
				c0.3-13,26-16,30-15C-144.4,247.4-137,252.3-136.8,264.6z"/>
			<path id="XMLID_16_" class="st1" d="M-150,269.8c0,0,2.6-8.4-3.6-16.9"/>
			<path id="XMLID_15_" class="st1" d="M-168.5,275.3c-0.5-0.6-3.2-1.7-1.4-11.8"/>
			<line id="XMLID_14_" class="st1" x1="-157.7" y1="272.1" x2="-162.1" y2="257.2"/>
			<path id="XMLID_13_" class="st1" d="M-159.7,252c0,0,0.2,8.1-7.3,5"/>
			<path id="XMLID_12_" class="st1" d="M-153.4,273.2c0,0-6.1-4.1-10.2,3"/>
		</g>
	</g>
	<g class="teeth" id="t12">
		<path class="st0" d="M-166.7,213.7l-18.6,14.7l-3.1,7.5l4.5,10.3l5.6,3.7l17.5-3.7l11.1-5.9c0,0,26.5-8.6,27-8.5s9.4-5.2,9.4-5.2
			l-4.1-15.4l-9.1-3.5l-18.4,2.2l-6.7,3.4l-7.8,2L-166.7,213.7z"/>
		<g id="XMLID_358_">
			<path id="XMLID_361_" class="numberRef" d="M-136.2,213.3h2.4v15.1h-2.6v-12.2l-3.6,2.3l-1.2-1.9L-136.2,213.3z"/>
			<path id="XMLID_359_" class="numberRef" d="M-129.2,228.4v-2.2l3.8-3.8c2-2,3.1-3.2,3.1-4.8c0-1.7-0.9-2.3-2.9-2.3
				c-1.6,0-3.8,0.4-3.8,0.4l-0.2-2c0,0,2.3-0.7,4.6-0.7c3.4,0,5,1.4,5,4.2c0,2.3-1,3.6-3.4,5.8l-3.3,3.1h7v2.2h-9.9V228.4z"/>
		</g>
		<g id="XMLID_244_">
			<path id="XMLID_11_" class="st1" d="M-156.4,217.6c-4.3-4.1-10.1-6.3-15.8-0.8c-6.7,6.5-15.8,11.9-16.2,17.1
				c-0.4,5.2,2.1,8.6,2.1,8.6s1.4,4,5.9,6.7s14.1-1.7,23.3-3.4c5.7-1.1,9.5-7.1,9-12.3c-0.3-3.3-1.8-6.3-3.3-9.2
				C-152.6,222.1-154.3,219.6-156.4,217.6z"/>
			<path id="XMLID_10_" class="st1" d="M-159.3,238.5c0,0-0.3-9.5-7.1-13.7"/>
			<line id="XMLID_9_" class="st1" x1="-170.1" y1="239.9" x2="-174.9" y2="229.2"/>
			<path id="XMLID_8_" class="st1" d="M-172.4,226.6c0,0-0.4,3.2-4.4,3.6"/>
			<path id="XMLID_7_" class="st1" d="M-166.7,240.6c0,0-5.8-2.4-6.5,3.4"/>
		</g>
	</g>
	<g class="teeth" id="t11">
		<polygon class="st0" points="-155.6,174.5 -174.9,183.4 -186.5,188.4 -193.5,190.9 -200.9,200.4 -202.6,209.5 -200.9,216.8
			-192.3,220.7 -176.9,218.2 -170.1,213 -162.8,202.9 -147.2,198.4 -138.8,194.8 -138.8,182.4 -143.9,170.8 		"/>
		<g id="XMLID_349_">
			<path id="XMLID_352_" class="numberRef" d="M-160.2,179.5h2.4v15.1h-2.6v-12.2l-3.6,2.3l-1.2-1.9L-160.2,179.5z"/>
			<path id="XMLID_350_" class="numberRef" d="M-147.7,179.5h2.4v15.1h-2.6v-12.2l-3.6,2.3l-1.2-1.9L-147.7,179.5z"/>
		</g>
		<g id="XMLID_241_">
			<path id="XMLID_6_" class="st1" d="M-169.1,204.3c0,0.2,1.4,10.7-7.8,13.9c-8.6,2.9-21.2,6.7-25.4-4.1c-0.3-0.9-0.6-1.8-0.6-2.8
				c0-1.2,0.4-2.3,0.7-3.5c1.5-4.7,2.3-12.9,6.6-15.8c6.5-4.3,18.5-3,23.5,3.1C-169.5,198.2-169.6,200.6-169.1,204.3z"/>
			<path id="XMLID_5_" class="st1" d="M-192.3,198.4l3.7,3c1.4,7.8,6.1,9.1,6.1,9.1s1.1,1.6,0.4,3.3"/>
		</g>
	</g>
	<g class="teeth" id="t10">
		<polygon class="st0" points="-221.4,170.8 -225.1,172.2 -225.1,177.5 -225.1,185.5 -226.7,190.8 -222,198.4 -218.4,200.2
			-211.8,199 -202.6,196.7 -197.3,193.6 -193.5,181.4 -183.3,171.9 -173.2,167.1 -172.5,151.8 -183.3,145.8 -195.8,148.1
			-205.2,154 -205.5,161.7 -210.5,167.1 		"/>
		<g id="XMLID_340_">
			<path id="XMLID_344_" class="numberRef" d="M-195.9,152h2.4v15.1h-2.6v-12.2l-3.6,2.3l-1.2-1.9L-195.9,152z"/>
			<path id="XMLID_341_" class="numberRef" d="M-177.5,159.7c0,5.7-2.1,7.6-5.8,7.6c-3.7,0-5.8-1.9-5.8-7.6c0-5.9,2.1-7.9,5.8-7.9
				C-179.6,151.7-177.5,153.7-177.5,159.7z M-186.5,159.7c0,4.1,1.1,5.4,3.2,5.4s3.1-1.3,3.1-5.4c0-4.4-1-5.7-3.1-5.7
				C-185.5,153.9-186.5,155.2-186.5,159.7z"/>
		</g>
		<g id="XMLID_238_">
			<path id="XMLID_4_" class="st1" d="M-198,183.9c0.8,2.4,1.2,4.8,1.1,7.1c0,1.4-0.2,3-1.3,4c-1.9,1.9-7.1,1.8-9.6,2.6
				c-2.9,0.8-5.8,2.3-8.8,2.8c-2.4,0.4-9.9-3.4-10.1-9.6c-0.2-6.2,4.7-7.1,1-14.6c-3.8-7.8,14.8-5.8,18-4.2
				C-202.8,174.4-199.7,178.8-198,183.9z"/>
			<path id="XMLID_3_" class="st1" d="M-207.1,192c0,0-8.7-5.9-12.4-11.8"/>
		</g>
	</g>
	<g class="teeth" id="t9">
		<polygon class="st0" points="-259.9,158.9 -263.2,162.9 -257.6,170.8 -257.2,185.6 -252.4,188.4 -240.5,190.6 -234.4,177.8
			-229.6,174.5 -225.6,169.2 -229,152 -229.8,137.1 -234.4,130.4 -244.4,131.4 -249.2,134.8 -249.8,143.5 -248.8,150.3 -252.5,154
					"/>
		<g id="XMLID_331_">
			<path id="XMLID_332_" class="numberRef" d="M-244.9,147.8c0,0,2.3,0.3,4.2,0.3c2.4,0,3.6-1.5,3.6-4.4c0,0-2.1,0.8-3.4,0.8
				c-3.3,0-5.2-1.5-5.2-4.7c0-3.1,2.1-5,5.5-5c4,0,5.8,3,5.8,7.8c0,5.9-2.4,7.8-6.3,7.8c-2,0-4.5-0.5-4.5-0.5L-244.9,147.8z
				 M-237.1,141.7c0-2.6-0.8-4.6-3.1-4.6c-1.8,0-2.8,1.1-2.8,2.8s1,2.5,2.7,2.5C-238.9,142.3-237.1,141.7-237.1,141.7z"/>
		</g>
		<g id="XMLID_235_">
			<path id="XMLID_2_" class="st1" d="M-225.6,169.2c0,0-1.4-6.5-19.2-9.9c-17.8-3.4-18,1.9-18.4,3.6c-0.4,1.7,0.2,2.2,4.4,6.2
				c4.2,4-0.5,13.5,1.6,16.5c2.1,3,15.6,6.3,16.7,5s6.5-15.6,8.3-15.5C-230.4,175.3-223.2,172.4-225.6,169.2z"/>
			<path id="XMLID_1_" class="st1" d="M-237.4,170.8c0,0-3.7-3.1-14-3.7"/>
		</g>
	</g>
</g>
<text transform="matrix(1 0 0 1 -306.1631 400.4012)" class="st3 st4">CLIQUE PARA </text>
<text transform="matrix(1 0 0 1 -340.0631 415.3012)" class="st3 st4">SELECIONAR OS DENTES</text>
</svg>
