<svg version="1.1" id="emailSVG" xmlns="http://www.w3.org/2000/svg" xmlns:xlink="http://www.w3.org/1999/xlink" x="0px" y="0px"
	 viewBox="0 0 100 100" style="enable-background:new 0 0 100 100;" xml:space="preserve">
<style type="text/css">
	.email0{clip-path:url(#XMLID_61_);}
	.email1{clip-path:url(#XMLID_62_);fill:#A2A2A2;}
	.email2{clip-path:url(#XMLID_63_);fill:#A2A2A2;}
</style>
<g id="XMLID_57_">
	<g>
		<defs>
			<rect id="XMLID_53_" x="5.2" y="15.8" width="89.5" height="68.3"/>
		</defs>
		<clipPath id="XMLID_61_">
			<use xlink:href="#XMLID_53_"  style="overflow:visible;"/>
		</clipPath>
		<g class="email0">
			<defs>
				<rect id="XMLID_56_" x="5.3" y="15.8" width="89.5" height="68.3"/>
			</defs>
			<clipPath id="XMLID_62_">
				<use xlink:href="#XMLID_56_"  style="overflow:visible;"/>
			</clipPath>
			<path class="email1" d="M89.7,73c0,3.3-2.7,5.9-5.9,5.9H16.2c-3.3,0-5.9-2.7-5.9-5.9V26.9c0-3.3,2.7-5.9,5.9-5.9h67.5
				c3.3,0,5.9,2.7,5.9,5.9L89.7,73L89.7,73z M83.7,15.9H16.2c-6,0-10.9,4.9-10.9,10.9V73c0,6,4.9,10.9,10.9,10.9h67.5
				c6,0,10.9-4.9,10.9-10.9V26.9C94.7,20.8,89.8,15.9,83.7,15.9z"/>
		</g>
		<g class="email0">
			<defs>
				<rect id="XMLID_54_" x="5.2" y="15.8" width="89.5" height="68.3"/>
			</defs>
			<clipPath id="XMLID_63_">
				<use xlink:href="#XMLID_54_"  style="overflow:visible;"/>
			</clipPath>
			<path id="XMLID_55_" class="email2" d="M61.6,49.3l21.9-19.6c1-0.9,1.1-2.5,0.2-3.5c-0.9-1-2.5-1.1-3.5-0.2L50,53.1l-5.9-5.3
				c0,0,0,0,0-0.1c-0.1-0.1-0.3-0.2-0.4-0.4L19.7,26c-1-0.9-2.6-0.8-3.5,0.2c-0.9,1-0.8,2.6,0.2,3.5l22.1,19.8l-22,20.6
				c-1,0.9-1.1,2.5-0.1,3.5c0.5,0.5,1.2,0.8,1.8,0.8c0.6,0,1.2-0.2,1.7-0.7l22.4-20.9l6.1,5.4c0.5,0.4,1.1,0.6,1.7,0.6
				c0.6,0,1.2-0.2,1.7-0.6l6.2-5.6l22.2,21.1c0.5,0.5,1.1,0.7,1.7,0.7c0.7,0,1.3-0.3,1.8-0.8c0.9-1,0.9-2.6-0.1-3.5L61.6,49.3z"/>
		</g>
	</g>
</g>
</svg>
