<svg version="1.1" id="telefoneSVG" xmlns="http://www.w3.org/2000/svg" xmlns:xlink="http://www.w3.org/1999/xlink" x="0px" y="0px"
	 viewBox="0 0 100 100" style="enable-background:new 0 0 100 100;" xml:space="preserve">
<style type="text/css">
	.tel0{clip-path:url(#XMLID_58_);}
	.tel1{clip-path:url(#XMLID_62_);fill:#A2A2A2;}
</style>
<g id="XMLID_56_">
	<g>
		<defs>
			<rect id="XMLID_53_" x="4.7" y="4.6" width="90.6" height="90.8"/>
		</defs>
		<clipPath id="XMLID_58_">
			<use xlink:href="#XMLID_53_"  style="overflow:visible;"/>
		</clipPath>
		<g class="tel0">
			<defs>
				<rect id="XMLID_54_" x="4.7" y="4.6" width="90.6" height="90.8"/>
			</defs>
			<clipPath id="XMLID_62_">
				<use xlink:href="#XMLID_54_"  style="overflow:visible;"/>
			</clipPath>
			<path class="tel1" d="M83,80.9C83,80.9,83,80.9,83,80.9c-0.7,0.8-1.5,1.5-2.3,2.3c-1.2,1.2-2.5,2.4-3.7,3.8c-1.9,2.1-4.2,3-7.2,3
				c-0.3,0-0.6,0-0.9,0C63.3,89.7,58,87.5,54,85.6c-10.8-5.2-20.3-12.7-28.2-22.1C19.3,55.6,15,48.4,12.1,40.6
				c-1.8-4.8-2.4-8.5-2.1-12c0.2-2.2,1.1-4.1,2.6-5.7l6.5-6.5c0.9-0.9,1.9-1.4,2.9-1.4c1.2,0,2.2,0.7,2.8,1.3l0.1,0.1
				c1.2,1.1,2.3,2.2,3.4,3.4c0.6,0.6,1.2,1.2,1.8,1.9l5.2,5.2c2,2,2,3.9,0,5.9c-0.6,0.6-1.1,1.1-1.6,1.6c-1.6,1.6-3.1,3.2-4.8,4.7
				c0,0-0.1,0.1-0.1,0.1c-1.6,1.6-1.3,3.2-1,4.3l0.1,0.2c1.4,3.3,3.3,6.4,6.2,10.1l0,0c5.3,6.5,10.8,11.6,17,15.4
				c0.8,0.5,1.6,0.9,2.3,1.3c0.7,0.3,1.3,0.7,1.9,1c0.1,0,0.2,0.1,0.2,0.1c0.7,0.3,1.3,0.5,1.9,0.5c1.6,0,2.6-1,2.9-1.3l6.5-6.5
				c0.6-0.6,1.7-1.4,2.9-1.4c1.2,0,2.2,0.7,2.8,1.4L83,74.9C85,76.8,85,78.8,83,80.9z M76.2,60.7c-1.9-1.9-4.1-3-6.5-3
				c-2.4,0-4.6,1-6.5,2.9l-6,6c-0.5-0.3-1-0.5-1.5-0.8c-0.7-0.3-1.3-0.7-1.9-1c-5.7-3.6-10.8-8.3-15.7-14.3c-2.4-3-4-5.6-5.2-8.1
				c1.6-1.4,3-2.9,4.4-4.4c0.5-0.5,1.1-1.1,1.6-1.6c4-4,4-9.2,0-13.2l-5.2-5.2c-0.6-0.6-1.2-1.2-1.8-1.8c-1.1-1.2-2.4-2.4-3.6-3.6
				c-1.9-1.8-4.1-2.8-6.4-2.8s-4.6,1-6.5,2.8l0,0l-6.5,6.6c-2.4,2.4-3.8,5.4-4.1,8.9C4.3,33.8,6,39,7.2,42.4
				c3.1,8.3,7.7,16.1,14.6,24.4c8.4,10,18.4,17.9,29.9,23.4c4.4,2.1,10.3,4.5,16.8,5c0.4,0,0.8,0,1.2,0c4.4,0,8.1-1.6,11-4.7
				c0,0,0.1-0.1,0.1-0.1c1-1.2,2.1-2.3,3.3-3.5c0.8-0.8,1.7-1.6,2.5-2.5c1.9-2,2.9-4.3,2.9-6.6c0-2.4-1-4.6-2.9-6.6L76.2,60.7z"/>
			<path id="XMLID_59_" class="tel1" d="M53.5,26.2c5,0.8,9.6,3.2,13.2,6.8c3.6,3.6,6,8.2,6.8,13.2c0.2,1.3,1.3,2.1,2.5,2.1
				c0.2,0,0.3,0,0.4,0c1.4-0.2,2.3-1.6,2.1-3c-1-6.1-3.9-11.6-8.3-16c-4.4-4.4-9.9-7.2-16-8.3c-1.4-0.2-2.7,0.7-3,2.1
				C51.2,24.6,52.1,26,53.5,26.2z"/>
			<path id="XMLID_55_" class="tel1" d="M95,44.6c-1.7-10-6.4-19-13.6-26.3C74.2,11.1,65.1,6.4,55.2,4.7c-1.4-0.2-2.7,0.7-3,2.1
				c-0.2,1.4,0.7,2.7,2.1,3c8.9,1.5,17,5.7,23.5,12.2c6.5,6.5,10.7,14.6,12.2,23.5c0.2,1.3,1.3,2.1,2.5,2.1c0.2,0,0.3,0,0.4,0
				C94.3,47.3,95.3,46,95,44.6z"/>
		</g>
	</g>
</g>
</svg>
