<svg version="1.1" id="whatsappSGV" xmlns="http://www.w3.org/2000/svg" xmlns:xlink="http://www.w3.org/1999/xlink" x="0px" y="0px"
	 viewBox="0 0 100 100" style="enable-background:new 0 0 100 100;" xml:space="preserve">
<style type="text/css">
	.wapp{fill:#A2A2A2;}
</style>
<g id="XMLID_53_">
	<path id="XMLID_55_" class="wapp" d="M50,6.8c-23.4,0-42.4,19-42.4,42.4c0,9.1,3.7,17.4,5.3,20.5c0.7,1.4,2.5,2,4,1.3
		c1.4-0.7,2-2.5,1.3-4c-1.4-2.7-4.7-9.9-4.7-17.8C13.5,29,29.9,12.7,50,12.7c20.1,0,36.5,16.4,36.5,36.5c0,20.1-16.4,36.5-36.5,36.5
		c-7.9,0-14.1-2.7-16.4-3.9c-0.7-0.3-1.5-0.4-2.2-0.2l-18.5,5.9c-1.5,0.5-2.4,2.2-1.9,3.7c0.4,1.3,1.6,2,2.8,2c0.3,0,0.6,0,0.9-0.1
		L32,87.5c3.6,1.7,10.1,4,18,4c23.4,0,42.4-19,42.4-42.4C92.4,25.8,73.4,6.8,50,6.8z"/>
	<path id="XMLID_54_" class="wapp" d="M41.6,41.9c-1.3,1-1.5,2.8-0.5,4.1c1,1.3,2.8,1.5,4.1,0.5c0.9-0.7,3.3-2.5,2.9-5.8
		c-0.2-2-2.1-4.6-3.7-6.6c-2.3-2.8-4.2-4.4-5.7-4.9c-1.4-0.4-2.9-0.4-4.3,0.2c-3,1.2-5.1,3.2-6.1,5.7c-1,2.5-0.8,5.3,0.5,8.1
		C31.9,49.8,36,55.4,41,60c0,0,0,0,0.1,0.1c5.1,4.5,11.1,8,17.9,10.3c1.3,0.4,2.6,0.7,3.8,0.7c1.5,0,3-0.3,4.3-1
		c2.4-1.3,4.2-3.6,5-6.7c0.4-1.5,0.3-3-0.3-4.3c-0.6-1.5-2.5-3.2-5.5-5.2c-2.1-1.3-4.9-2.9-6.9-2.9h0c-3.3,0-4.9,2.6-5.5,3.6
		c-0.8,1.4-0.4,3.2,1,4c1.4,0.8,3.2,0.4,4-1c0.2-0.4,0.4-0.6,0.5-0.7c1.7,0.5,6.1,3.4,7,4.6c0,0.1,0,0.2,0,0.3
		c-0.3,1-0.9,2.4-2.1,3.1c-1.1,0.6-2.5,0.3-3.4,0c-6.1-2.1-11.4-5.2-15.9-9.1c0,0,0,0,0,0c-4.5-4-8.1-9-10.9-14.8
		c-0.4-0.9-0.8-2.2-0.4-3.4c0.5-1.3,1.8-2,2.8-2.4c0.2-0.1,0.3-0.1,0.3-0.1c1.3,0.8,4.7,4.9,5.4,6.5C42.2,41.5,42,41.6,41.6,41.9z"
		/>
</g>
</svg>
